<?xml version="1.0" encoding="UTF-8" standalone="no"?>
<!DOCTYPE svg PUBLIC "-//W3C//DTD SVG 1.1//EN"
 "http://www.w3.org/Graphics/SVG/1.1/DTD/svg11.dtd">
<!-- Generated by graphviz version 2.26.3 (20100126.1600)
 -->
<!-- Title: Bchanged Pages: 1 -->
<svg width="486pt" height="125pt"
 viewBox="0.00 0.00 486.00 125.00" xmlns="http://www.w3.org/2000/svg" xmlns:xlink="http://www.w3.org/1999/xlink">
<g id="graph1" class="graph" transform="scale(1 1) rotate(0) translate(4 121)">
<title>Bchanged</title>
<polygon fill="white" stroke="white" points="-4,5 -4,-121 483,-121 483,5 -4,5"/>
<!-- NodeH -->
<g id="node1" class="node"><title>NodeH</title>
<polygon fill="orange" stroke="orange" points="12.5,-81 57.5,-81 69.5,-93 69.5,-105 57.5,-117 12.5,-117 0.5,-105 0.5,-93 12.5,-81"/>
<path fill="orange" stroke="orange" d="M57.5,-81C63.5,-81 69.5,-87 69.5,-93"/>
<path fill="orange" stroke="orange" d="M69.5,-105C69.5,-111 63.5,-117 57.5,-117"/>
<path fill="orange" stroke="orange" d="M12.5,-117C6.5,-117 0.5,-111 0.5,-105"/>
<path fill="orange" stroke="orange" d="M0.5,-93C0.5,-87 6.5,-81 12.5,-81"/>
<polyline fill="none" stroke="gray" points="12.5,-81 57.5,-81 "/>
<path fill="none" stroke="gray" d="M57.5,-81C63.5,-81 69.5,-87 69.5,-93"/>
<polyline fill="none" stroke="gray" points="69.5,-93 69.5,-105 "/>
<path fill="none" stroke="gray" d="M69.5,-105C69.5,-111 63.5,-117 57.5,-117"/>
<polyline fill="none" stroke="gray" points="57.5,-117 12.5,-117 "/>
<path fill="none" stroke="gray" d="M12.5,-117C6.5,-117 0.5,-111 0.5,-105"/>
<polyline fill="none" stroke="gray" points="0.5,-105 0.5,-93 "/>
<path fill="none" stroke="gray" d="M0.5,-93C0.5,-87 6.5,-81 12.5,-81"/>
<text text-anchor="middle" x="13.5" y="-95.9" font-family="Times Roman,serif" font-size="14.00">H</text>
<polyline fill="none" stroke="gray" points="26.5,-81 26.5,-117 "/>
<text text-anchor="middle" x="48" y="-95.9" font-family="Times Roman,serif" font-size="14.00">Next</text>
</g>
<!-- NodeA -->
<g id="node2" class="node"><title>NodeA</title>
<polygon fill="orange" stroke="orange" points="118.5,-81 163.5,-81 175.5,-93 175.5,-105 163.5,-117 118.5,-117 106.5,-105 106.5,-93 118.5,-81"/>
<path fill="orange" stroke="orange" d="M163.5,-81C169.5,-81 175.5,-87 175.5,-93"/>
<path fill="orange" stroke="orange" d="M175.5,-105C175.5,-111 169.5,-117 163.5,-117"/>
<path fill="orange" stroke="orange" d="M118.5,-117C112.5,-117 106.5,-111 106.5,-105"/>
<path fill="orange" stroke="orange" d="M106.5,-93C106.5,-87 112.5,-81 118.5,-81"/>
<polyline fill="none" stroke="gray" points="118.5,-81 163.5,-81 "/>
<path fill="none" stroke="gray" d="M163.5,-81C169.5,-81 175.5,-87 175.5,-93"/>
<polyline fill="none" stroke="gray" points="175.5,-93 175.5,-105 "/>
<path fill="none" stroke="gray" d="M175.5,-105C175.5,-111 169.5,-117 163.5,-117"/>
<polyline fill="none" stroke="gray" points="163.5,-117 118.5,-117 "/>
<path fill="none" stroke="gray" d="M118.5,-117C112.5,-117 106.5,-111 106.5,-105"/>
<polyline fill="none" stroke="gray" points="106.5,-105 106.5,-93 "/>
<path fill="none" stroke="gray" d="M106.5,-93C106.5,-87 112.5,-81 118.5,-81"/>
<text text-anchor="middle" x="119.5" y="-95.9" font-family="Times Roman,serif" font-size="14.00">A</text>
<polyline fill="none" stroke="gray" points="132.5,-81 132.5,-117 "/>
<text text-anchor="middle" x="154" y="-95.9" font-family="Times Roman,serif" font-size="14.00">Next</text>
</g>
<!-- NodeH&#45;&gt;NodeA -->
<g id="edge2" class="edge"><title>NodeH:f&#45;&gt;NodeA</title>
<path fill="none" stroke="black" d="M70,-99C78.5052,-99 87.5835,-99 96.3081,-99"/>
<polygon fill="black" stroke="black" points="96.3321,-102.5 106.332,-99 96.332,-95.5001 96.3321,-102.5"/>
</g>
<!-- NodeB -->
<g id="node3" class="node"><title>NodeB</title>
<polygon fill="orange" stroke="orange" points="224.5,-54 269.5,-54 281.5,-66 281.5,-78 269.5,-90 224.5,-90 212.5,-78 212.5,-66 224.5,-54"/>
<path fill="orange" stroke="orange" d="M269.5,-54C275.5,-54 281.5,-60 281.5,-66"/>
<path fill="orange" stroke="orange" d="M281.5,-78C281.5,-84 275.5,-90 269.5,-90"/>
<path fill="orange" stroke="orange" d="M224.5,-90C218.5,-90 212.5,-84 212.5,-78"/>
<path fill="orange" stroke="orange" d="M212.5,-66C212.5,-60 218.5,-54 224.5,-54"/>
<polyline fill="none" stroke="gray" points="224.5,-54 269.5,-54 "/>
<path fill="none" stroke="gray" d="M269.5,-54C275.5,-54 281.5,-60 281.5,-66"/>
<polyline fill="none" stroke="gray" points="281.5,-66 281.5,-78 "/>
<path fill="none" stroke="gray" d="M281.5,-78C281.5,-84 275.5,-90 269.5,-90"/>
<polyline fill="none" stroke="gray" points="269.5,-90 224.5,-90 "/>
<path fill="none" stroke="gray" d="M224.5,-90C218.5,-90 212.5,-84 212.5,-78"/>
<polyline fill="none" stroke="gray" points="212.5,-78 212.5,-66 "/>
<path fill="none" stroke="gray" d="M212.5,-66C212.5,-60 218.5,-54 224.5,-54"/>
<text text-anchor="middle" x="225.5" y="-68.9" font-family="Times Roman,serif" font-size="14.00">B</text>
<polyline fill="none" stroke="gray" points="238.5,-54 238.5,-90 "/>
<text text-anchor="middle" x="260" y="-68.9" font-family="Times Roman,serif" font-size="14.00">Next</text>
</g>
<!-- NodeA&#45;&gt;NodeB -->
<g id="edge4" class="edge"><title>NodeA:f&#45;&gt;NodeB</title>
<path fill="none" stroke="black" d="M176,-99C185.69,-99 195.666,-96.7758 204.967,-93.6041"/>
<polygon fill="black" stroke="black" points="206.281,-96.8485 214.373,-90.0094 203.783,-90.3097 206.281,-96.8485"/>
</g>
<!-- NodeD -->
<g id="node5" class="node"><title>NodeD</title>
<polygon fill="orange" stroke="orange" points="330.5,-27 375.5,-27 387.5,-39 387.5,-51 375.5,-63 330.5,-63 318.5,-51 318.5,-39 330.5,-27"/>
<path fill="orange" stroke="orange" d="M375.5,-27C381.5,-27 387.5,-33 387.5,-39"/>
<path fill="orange" stroke="orange" d="M387.5,-51C387.5,-57 381.5,-63 375.5,-63"/>
<path fill="orange" stroke="orange" d="M330.5,-63C324.5,-63 318.5,-57 318.5,-51"/>
<path fill="orange" stroke="orange" d="M318.5,-39C318.5,-33 324.5,-27 330.5,-27"/>
<polyline fill="none" stroke="gray" points="330.5,-27 375.5,-27 "/>
<path fill="none" stroke="gray" d="M375.5,-27C381.5,-27 387.5,-33 387.5,-39"/>
<polyline fill="none" stroke="gray" points="387.5,-39 387.5,-51 "/>
<path fill="none" stroke="gray" d="M387.5,-51C387.5,-57 381.5,-63 375.5,-63"/>
<polyline fill="none" stroke="gray" points="375.5,-63 330.5,-63 "/>
<path fill="none" stroke="gray" d="M330.5,-63C324.5,-63 318.5,-57 318.5,-51"/>
<polyline fill="none" stroke="gray" points="318.5,-51 318.5,-39 "/>
<path fill="none" stroke="gray" d="M318.5,-39C318.5,-33 324.5,-27 330.5,-27"/>
<text text-anchor="middle" x="331.5" y="-41.9" font-family="Times Roman,serif" font-size="14.00">D</text>
<polyline fill="none" stroke="gray" points="344.5,-27 344.5,-63 "/>
<text text-anchor="middle" x="366" y="-41.9" font-family="Times Roman,serif" font-size="14.00">Next</text>
</g>
<!-- NodeB&#45;&gt;NodeD -->
<g id="edge6" class="edge"><title>NodeB:f&#45;&gt;NodeD</title>
<path fill="none" stroke="black" d="M282,-72C291.69,-72 301.666,-69.7758 310.967,-66.6041"/>
<polygon fill="black" stroke="black" points="312.281,-69.8485 320.373,-63.0094 309.783,-63.3097 312.281,-69.8485"/>
</g>
<!-- NodeC -->
<g id="node4" class="node"><title>NodeC</title>
<polygon fill="green" stroke="green" points="224.5,-0 269.5,-0 281.5,-12 281.5,-24 269.5,-36 224.5,-36 212.5,-24 212.5,-12 224.5,-0"/>
<path fill="green" stroke="green" d="M269.5,-0C275.5,-0 281.5,-6 281.5,-12"/>
<path fill="green" stroke="green" d="M281.5,-24C281.5,-30 275.5,-36 269.5,-36"/>
<path fill="green" stroke="green" d="M224.5,-36C218.5,-36 212.5,-30 212.5,-24"/>
<path fill="green" stroke="green" d="M212.5,-12C212.5,-6 218.5,-0 224.5,-0"/>
<polyline fill="none" stroke="gray" points="224.5,-0 269.5,-0 "/>
<path fill="none" stroke="gray" d="M269.5,-0C275.5,-0 281.5,-6 281.5,-12"/>
<polyline fill="none" stroke="gray" points="281.5,-12 281.5,-24 "/>
<path fill="none" stroke="gray" d="M281.5,-24C281.5,-30 275.5,-36 269.5,-36"/>
<polyline fill="none" stroke="gray" points="269.5,-36 224.5,-36 "/>
<path fill="none" stroke="gray" d="M224.5,-36C218.5,-36 212.5,-30 212.5,-24"/>
<polyline fill="none" stroke="gray" points="212.5,-24 212.5,-12 "/>
<path fill="none" stroke="gray" d="M212.5,-12C212.5,-6 218.5,-0 224.5,-0"/>
<text text-anchor="middle" x="225.5" y="-14.9" font-family="Times Roman,serif" font-size="14.00">C</text>
<polyline fill="none" stroke="gray" points="238.5,-0 238.5,-36 "/>
<text text-anchor="middle" x="260" y="-14.9" font-family="Times Roman,serif" font-size="14.00">Next</text>
</g>
<!-- NodeC&#45;&gt;NodeD -->
<g id="edge12" class="edge"><title>NodeC:f&#45;&gt;NodeD</title>
<path fill="none" stroke="black" d="M282,-18C291.69,-18 301.666,-20.2242 310.967,-23.3959"/>
<polygon fill="black" stroke="black" points="309.783,-26.6903 320.373,-26.9906 312.281,-20.1515 309.783,-26.6903"/>
</g>
<!-- NodeN -->
<g id="node6" class="node"><title>NodeN</title>
<polygon fill="gray" stroke="gray" points="436,-27 466,-27 478,-39 478,-51 466,-63 436,-63 424,-51 424,-39 436,-27"/>
<path fill="gray" stroke="gray" d="M466,-27C472,-27 478,-33 478,-39"/>
<path fill="gray" stroke="gray" d="M478,-51C478,-57 472,-63 466,-63"/>
<path fill="gray" stroke="gray" d="M436,-63C430,-63 424,-57 424,-51"/>
<path fill="gray" stroke="gray" d="M424,-39C424,-33 430,-27 436,-27"/>
<polyline fill="none" stroke="gray" points="436,-27 466,-27 "/>
<path fill="none" stroke="gray" d="M466,-27C472,-27 478,-33 478,-39"/>
<polyline fill="none" stroke="gray" points="478,-39 478,-51 "/>
<path fill="none" stroke="gray" d="M478,-51C478,-57 472,-63 466,-63"/>
<polyline fill="none" stroke="gray" points="466,-63 436,-63 "/>
<path fill="none" stroke="gray" d="M436,-63C430,-63 424,-57 424,-51"/>
<polyline fill="none" stroke="gray" points="424,-51 424,-39 "/>
<path fill="none" stroke="gray" d="M424,-39C424,-33 430,-27 436,-27"/>
<text text-anchor="middle" x="451" y="-41.9" font-family="Times Roman,serif" font-size="14.00">Null</text>
</g>
<!-- NodeD&#45;&gt;NodeN -->
<g id="edge8" class="edge"><title>NodeD:f&#45;&gt;NodeN</title>
<path fill="none" stroke="black" d="M388,-45C396.229,-45 405.062,-45 413.434,-45"/>
<polygon fill="black" stroke="black" points="413.711,-48.5001 423.711,-45 413.711,-41.5001 413.711,-48.5001"/>
</g>
<!-- NodeE -->
<g id="node11" class="node"><title>NodeE</title>
<polygon fill="cyan" stroke="cyan" points="119,-27 163,-27 175,-39 175,-51 163,-63 119,-63 107,-51 107,-39 119,-27"/>
<path fill="cyan" stroke="cyan" d="M163,-27C169,-27 175,-33 175,-39"/>
<path fill="cyan" stroke="cyan" d="M175,-51C175,-57 169,-63 163,-63"/>
<path fill="cyan" stroke="cyan" d="M119,-63C113,-63 107,-57 107,-51"/>
<path fill="cyan" stroke="cyan" d="M107,-39C107,-33 113,-27 119,-27"/>
<polyline fill="none" stroke="gray" points="119,-27 163,-27 "/>
<path fill="none" stroke="gray" d="M163,-27C169,-27 175,-33 175,-39"/>
<polyline fill="none" stroke="gray" points="175,-39 175,-51 "/>
<path fill="none" stroke="gray" d="M175,-51C175,-57 169,-63 163,-63"/>
<polyline fill="none" stroke="gray" points="163,-63 119,-63 "/>
<path fill="none" stroke="gray" d="M119,-63C113,-63 107,-57 107,-51"/>
<polyline fill="none" stroke="gray" points="107,-51 107,-39 "/>
<path fill="none" stroke="gray" d="M107,-39C107,-33 113,-27 119,-27"/>
<text text-anchor="middle" x="119.5" y="-41.9" font-family="Times Roman,serif" font-size="14.00">E</text>
<polyline fill="none" stroke="gray" points="132,-27 132,-63 "/>
<text text-anchor="middle" x="153.5" y="-41.9" font-family="Times Roman,serif" font-size="14.00">Next</text>
</g>
<!-- NodeE&#45;&gt;NodeB -->
<g id="edge10" class="edge"><title>NodeE:f&#45;&gt;NodeB</title>
<path fill="none" stroke="black" d="M175,-45C184.809,-45 194.919,-47.2242 204.348,-50.3959"/>
<polygon fill="black" stroke="black" points="203.296,-53.7395 213.888,-53.9906 205.764,-47.1891 203.296,-53.7395"/>
</g>
</g>
</svg>
