<?xml version="1.0" encoding="UTF-8" standalone="no"?>
<!DOCTYPE svg PUBLIC "-//W3C//DTD SVG 1.1//EN"
 "http://www.w3.org/Graphics/SVG/1.1/DTD/svg11.dtd">
<!-- Generated by graphviz version 2.26.3 (20100126.1600)
 -->
<!-- Title: Linking Pages: 1 -->
<svg width="486pt" height="98pt"
 viewBox="0.00 0.00 486.00 98.00" xmlns="http://www.w3.org/2000/svg" xmlns:xlink="http://www.w3.org/1999/xlink">
<g id="graph1" class="graph" transform="scale(1 1) rotate(0) translate(4 94)">
<title>Linking</title>
<polygon fill="white" stroke="white" points="-4,5 -4,-94 483,-94 483,5 -4,5"/>
<!-- NodeH -->
<g id="node1" class="node"><title>NodeH</title>
<polygon fill="orange" stroke="orange" points="12.5,-54 57.5,-54 69.5,-66 69.5,-78 57.5,-90 12.5,-90 0.5,-78 0.5,-66 12.5,-54"/>
<path fill="orange" stroke="orange" d="M57.5,-54C63.5,-54 69.5,-60 69.5,-66"/>
<path fill="orange" stroke="orange" d="M69.5,-78C69.5,-84 63.5,-90 57.5,-90"/>
<path fill="orange" stroke="orange" d="M12.5,-90C6.5,-90 0.5,-84 0.5,-78"/>
<path fill="orange" stroke="orange" d="M0.5,-66C0.5,-60 6.5,-54 12.5,-54"/>
<polyline fill="none" stroke="gray" points="12.5,-54 57.5,-54 "/>
<path fill="none" stroke="gray" d="M57.5,-54C63.5,-54 69.5,-60 69.5,-66"/>
<polyline fill="none" stroke="gray" points="69.5,-66 69.5,-78 "/>
<path fill="none" stroke="gray" d="M69.5,-78C69.5,-84 63.5,-90 57.5,-90"/>
<polyline fill="none" stroke="gray" points="57.5,-90 12.5,-90 "/>
<path fill="none" stroke="gray" d="M12.5,-90C6.5,-90 0.5,-84 0.5,-78"/>
<polyline fill="none" stroke="gray" points="0.5,-78 0.5,-66 "/>
<path fill="none" stroke="gray" d="M0.5,-66C0.5,-60 6.5,-54 12.5,-54"/>
<text text-anchor="middle" x="13.5" y="-68.9" font-family="Times Roman,serif" font-size="14.00">H</text>
<polyline fill="none" stroke="gray" points="26.5,-54 26.5,-90 "/>
<text text-anchor="middle" x="48" y="-68.9" font-family="Times Roman,serif" font-size="14.00">Next</text>
</g>
<!-- NodeA -->
<g id="node2" class="node"><title>NodeA</title>
<polygon fill="orange" stroke="orange" points="118.5,-54 163.5,-54 175.5,-66 175.5,-78 163.5,-90 118.5,-90 106.5,-78 106.5,-66 118.5,-54"/>
<path fill="orange" stroke="orange" d="M163.5,-54C169.5,-54 175.5,-60 175.5,-66"/>
<path fill="orange" stroke="orange" d="M175.5,-78C175.5,-84 169.5,-90 163.5,-90"/>
<path fill="orange" stroke="orange" d="M118.5,-90C112.5,-90 106.5,-84 106.5,-78"/>
<path fill="orange" stroke="orange" d="M106.5,-66C106.5,-60 112.5,-54 118.5,-54"/>
<polyline fill="none" stroke="gray" points="118.5,-54 163.5,-54 "/>
<path fill="none" stroke="gray" d="M163.5,-54C169.5,-54 175.5,-60 175.5,-66"/>
<polyline fill="none" stroke="gray" points="175.5,-66 175.5,-78 "/>
<path fill="none" stroke="gray" d="M175.5,-78C175.5,-84 169.5,-90 163.5,-90"/>
<polyline fill="none" stroke="gray" points="163.5,-90 118.5,-90 "/>
<path fill="none" stroke="gray" d="M118.5,-90C112.5,-90 106.5,-84 106.5,-78"/>
<polyline fill="none" stroke="gray" points="106.5,-78 106.5,-66 "/>
<path fill="none" stroke="gray" d="M106.5,-66C106.5,-60 112.5,-54 118.5,-54"/>
<text text-anchor="middle" x="119.5" y="-68.9" font-family="Times Roman,serif" font-size="14.00">A</text>
<polyline fill="none" stroke="gray" points="132.5,-54 132.5,-90 "/>
<text text-anchor="middle" x="154" y="-68.9" font-family="Times Roman,serif" font-size="14.00">Next</text>
</g>
<!-- NodeH&#45;&gt;NodeA -->
<g id="edge2" class="edge"><title>NodeH:f&#45;&gt;NodeA</title>
<path fill="none" stroke="black" d="M70,-72C78.5052,-72 87.5835,-72 96.3081,-72"/>
<polygon fill="black" stroke="black" points="96.3321,-75.5001 106.332,-72 96.332,-68.5001 96.3321,-75.5001"/>
</g>
<!-- NodeC -->
<g id="node4" class="node"><title>NodeC</title>
<polygon fill="orange" stroke="orange" points="224.5,-27 269.5,-27 281.5,-39 281.5,-51 269.5,-63 224.5,-63 212.5,-51 212.5,-39 224.5,-27"/>
<path fill="orange" stroke="orange" d="M269.5,-27C275.5,-27 281.5,-33 281.5,-39"/>
<path fill="orange" stroke="orange" d="M281.5,-51C281.5,-57 275.5,-63 269.5,-63"/>
<path fill="orange" stroke="orange" d="M224.5,-63C218.5,-63 212.5,-57 212.5,-51"/>
<path fill="orange" stroke="orange" d="M212.5,-39C212.5,-33 218.5,-27 224.5,-27"/>
<polyline fill="none" stroke="gray" points="224.5,-27 269.5,-27 "/>
<path fill="none" stroke="gray" d="M269.5,-27C275.5,-27 281.5,-33 281.5,-39"/>
<polyline fill="none" stroke="gray" points="281.5,-39 281.5,-51 "/>
<path fill="none" stroke="gray" d="M281.5,-51C281.5,-57 275.5,-63 269.5,-63"/>
<polyline fill="none" stroke="gray" points="269.5,-63 224.5,-63 "/>
<path fill="none" stroke="gray" d="M224.5,-63C218.5,-63 212.5,-57 212.5,-51"/>
<polyline fill="none" stroke="gray" points="212.5,-51 212.5,-39 "/>
<path fill="none" stroke="gray" d="M212.5,-39C212.5,-33 218.5,-27 224.5,-27"/>
<text text-anchor="middle" x="225.5" y="-41.9" font-family="Times Roman,serif" font-size="14.00">C</text>
<polyline fill="none" stroke="gray" points="238.5,-27 238.5,-63 "/>
<text text-anchor="middle" x="260" y="-41.9" font-family="Times Roman,serif" font-size="14.00">Next</text>
</g>
<!-- NodeA&#45;&gt;NodeC -->
<g id="edge4" class="edge"><title>NodeA:f&#45;&gt;NodeC</title>
<path fill="none" stroke="black" d="M176,-72C185.69,-72 195.666,-69.7758 204.967,-66.6041"/>
<polygon fill="black" stroke="black" points="206.281,-69.8485 214.373,-63.0094 203.783,-63.3097 206.281,-69.8485"/>
</g>
<!-- NodeB -->
<g id="node3" class="node"><title>NodeB</title>
<polygon fill="green" stroke="green" points="118.5,-0 163.5,-0 175.5,-12 175.5,-24 163.5,-36 118.5,-36 106.5,-24 106.5,-12 118.5,-0"/>
<path fill="green" stroke="green" d="M163.5,-0C169.5,-0 175.5,-6 175.5,-12"/>
<path fill="green" stroke="green" d="M175.5,-24C175.5,-30 169.5,-36 163.5,-36"/>
<path fill="green" stroke="green" d="M118.5,-36C112.5,-36 106.5,-30 106.5,-24"/>
<path fill="green" stroke="green" d="M106.5,-12C106.5,-6 112.5,-0 118.5,-0"/>
<polyline fill="none" stroke="gray" points="118.5,-0 163.5,-0 "/>
<path fill="none" stroke="gray" d="M163.5,-0C169.5,-0 175.5,-6 175.5,-12"/>
<polyline fill="none" stroke="gray" points="175.5,-12 175.5,-24 "/>
<path fill="none" stroke="gray" d="M175.5,-24C175.5,-30 169.5,-36 163.5,-36"/>
<polyline fill="none" stroke="gray" points="163.5,-36 118.5,-36 "/>
<path fill="none" stroke="gray" d="M118.5,-36C112.5,-36 106.5,-30 106.5,-24"/>
<polyline fill="none" stroke="gray" points="106.5,-24 106.5,-12 "/>
<path fill="none" stroke="gray" d="M106.5,-12C106.5,-6 112.5,-0 118.5,-0"/>
<text text-anchor="middle" x="119.5" y="-14.9" font-family="Times Roman,serif" font-size="14.00">B</text>
<polyline fill="none" stroke="gray" points="132.5,-0 132.5,-36 "/>
<text text-anchor="middle" x="154" y="-14.9" font-family="Times Roman,serif" font-size="14.00">Next</text>
</g>
<!-- NodeB&#45;&gt;NodeC -->
<g id="edge6" class="edge"><title>NodeB:f&#45;&gt;NodeC</title>
<path fill="none" stroke="black" d="M176,-18C185.69,-18 195.666,-20.2242 204.967,-23.3959"/>
<polygon fill="black" stroke="black" points="203.783,-26.6903 214.373,-26.9906 206.281,-20.1515 203.783,-26.6903"/>
</g>
<!-- NodeD -->
<g id="node5" class="node"><title>NodeD</title>
<polygon fill="orange" stroke="orange" points="330.5,-27 375.5,-27 387.5,-39 387.5,-51 375.5,-63 330.5,-63 318.5,-51 318.5,-39 330.5,-27"/>
<path fill="orange" stroke="orange" d="M375.5,-27C381.5,-27 387.5,-33 387.5,-39"/>
<path fill="orange" stroke="orange" d="M387.5,-51C387.5,-57 381.5,-63 375.5,-63"/>
<path fill="orange" stroke="orange" d="M330.5,-63C324.5,-63 318.5,-57 318.5,-51"/>
<path fill="orange" stroke="orange" d="M318.5,-39C318.5,-33 324.5,-27 330.5,-27"/>
<polyline fill="none" stroke="gray" points="330.5,-27 375.5,-27 "/>
<path fill="none" stroke="gray" d="M375.5,-27C381.5,-27 387.5,-33 387.5,-39"/>
<polyline fill="none" stroke="gray" points="387.5,-39 387.5,-51 "/>
<path fill="none" stroke="gray" d="M387.5,-51C387.5,-57 381.5,-63 375.5,-63"/>
<polyline fill="none" stroke="gray" points="375.5,-63 330.5,-63 "/>
<path fill="none" stroke="gray" d="M330.5,-63C324.5,-63 318.5,-57 318.5,-51"/>
<polyline fill="none" stroke="gray" points="318.5,-51 318.5,-39 "/>
<path fill="none" stroke="gray" d="M318.5,-39C318.5,-33 324.5,-27 330.5,-27"/>
<text text-anchor="middle" x="331.5" y="-41.9" font-family="Times Roman,serif" font-size="14.00">D</text>
<polyline fill="none" stroke="gray" points="344.5,-27 344.5,-63 "/>
<text text-anchor="middle" x="366" y="-41.9" font-family="Times Roman,serif" font-size="14.00">Next</text>
</g>
<!-- NodeC&#45;&gt;NodeD -->
<g id="edge8" class="edge"><title>NodeC:f&#45;&gt;NodeD</title>
<path fill="none" stroke="black" d="M282,-45C290.505,-45 299.584,-45 308.308,-45"/>
<polygon fill="black" stroke="black" points="308.332,-48.5001 318.332,-45 308.332,-41.5001 308.332,-48.5001"/>
</g>
<!-- NodeN -->
<g id="node6" class="node"><title>NodeN</title>
<polygon fill="gray" stroke="gray" points="436,-27 466,-27 478,-39 478,-51 466,-63 436,-63 424,-51 424,-39 436,-27"/>
<path fill="gray" stroke="gray" d="M466,-27C472,-27 478,-33 478,-39"/>
<path fill="gray" stroke="gray" d="M478,-51C478,-57 472,-63 466,-63"/>
<path fill="gray" stroke="gray" d="M436,-63C430,-63 424,-57 424,-51"/>
<path fill="gray" stroke="gray" d="M424,-39C424,-33 430,-27 436,-27"/>
<polyline fill="none" stroke="gray" points="436,-27 466,-27 "/>
<path fill="none" stroke="gray" d="M466,-27C472,-27 478,-33 478,-39"/>
<polyline fill="none" stroke="gray" points="478,-39 478,-51 "/>
<path fill="none" stroke="gray" d="M478,-51C478,-57 472,-63 466,-63"/>
<polyline fill="none" stroke="gray" points="466,-63 436,-63 "/>
<path fill="none" stroke="gray" d="M436,-63C430,-63 424,-57 424,-51"/>
<polyline fill="none" stroke="gray" points="424,-51 424,-39 "/>
<path fill="none" stroke="gray" d="M424,-39C424,-33 430,-27 436,-27"/>
<text text-anchor="middle" x="451" y="-41.9" font-family="Times Roman,serif" font-size="14.00">Null</text>
</g>
<!-- NodeD&#45;&gt;NodeN -->
<g id="edge10" class="edge"><title>NodeD:f&#45;&gt;NodeN</title>
<path fill="none" stroke="black" d="M388,-45C396.229,-45 405.062,-45 413.434,-45"/>
<polygon fill="black" stroke="black" points="413.711,-48.5001 423.711,-45 413.711,-41.5001 413.711,-48.5001"/>
</g>
<!-- NodeE -->
<g id="node12" class="node"><title>NodeE</title>
<polygon fill="cyan" stroke="cyan" points="13,-0 57,-0 69,-12 69,-24 57,-36 13,-36 1,-24 1,-12 13,-0"/>
<path fill="cyan" stroke="cyan" d="M57,-0C63,-0 69,-6 69,-12"/>
<path fill="cyan" stroke="cyan" d="M69,-24C69,-30 63,-36 57,-36"/>
<path fill="cyan" stroke="cyan" d="M13,-36C7,-36 1,-30 1,-24"/>
<path fill="cyan" stroke="cyan" d="M1,-12C1,-6 7,-0 13,-0"/>
<polyline fill="none" stroke="gray" points="13,-0 57,-0 "/>
<path fill="none" stroke="gray" d="M57,-0C63,-0 69,-6 69,-12"/>
<polyline fill="none" stroke="gray" points="69,-12 69,-24 "/>
<path fill="none" stroke="gray" d="M69,-24C69,-30 63,-36 57,-36"/>
<polyline fill="none" stroke="gray" points="57,-36 13,-36 "/>
<path fill="none" stroke="gray" d="M13,-36C7,-36 1,-30 1,-24"/>
<polyline fill="none" stroke="gray" points="1,-24 1,-12 "/>
<path fill="none" stroke="gray" d="M1,-12C1,-6 7,-0 13,-0"/>
<text text-anchor="middle" x="13.5" y="-14.9" font-family="Times Roman,serif" font-size="14.00">E</text>
<polyline fill="none" stroke="gray" points="26,-0 26,-36 "/>
<text text-anchor="middle" x="47.5" y="-14.9" font-family="Times Roman,serif" font-size="14.00">Next</text>
</g>
<!-- NodeE&#45;&gt;NodeB -->
<g id="edge12" class="edge"><title>NodeE:f&#45;&gt;NodeB</title>
<path fill="none" stroke="black" d="M69,-18C77.7148,-18 87.023,-18 95.955,-18"/>
<polygon fill="black" stroke="black" points="96.2095,-21.5001 106.21,-18 96.2095,-14.5001 96.2095,-21.5001"/>
</g>
</g>
</svg>
