<?xml version="1.0" encoding="UTF-8" standalone="no"?>
<!DOCTYPE svg PUBLIC "-//W3C//DTD SVG 1.1//EN"
 "http://www.w3.org/Graphics/SVG/1.1/DTD/svg11.dtd">
<!-- Generated by graphviz version 2.26.3 (20100126.1600)
 -->
<!-- Title: Eclone Pages: 1 -->
<svg width="698pt" height="98pt"
 viewBox="0.00 0.00 698.00 98.00" xmlns="http://www.w3.org/2000/svg" xmlns:xlink="http://www.w3.org/1999/xlink">
<g id="graph1" class="graph" transform="scale(1 1) rotate(0) translate(4 94)">
<title>Eclone</title>
<polygon fill="white" stroke="white" points="-4,5 -4,-94 695,-94 695,5 -4,5"/>
<!-- NodeH -->
<g id="node1" class="node"><title>NodeH</title>
<polygon fill="orange" stroke="orange" points="12.5,-54 57.5,-54 69.5,-66 69.5,-78 57.5,-90 12.5,-90 0.5,-78 0.5,-66 12.5,-54"/>
<path fill="orange" stroke="orange" d="M57.5,-54C63.5,-54 69.5,-60 69.5,-66"/>
<path fill="orange" stroke="orange" d="M69.5,-78C69.5,-84 63.5,-90 57.5,-90"/>
<path fill="orange" stroke="orange" d="M12.5,-90C6.5,-90 0.5,-84 0.5,-78"/>
<path fill="orange" stroke="orange" d="M0.5,-66C0.5,-60 6.5,-54 12.5,-54"/>
<polyline fill="none" stroke="gray" points="12.5,-54 57.5,-54 "/>
<path fill="none" stroke="gray" d="M57.5,-54C63.5,-54 69.5,-60 69.5,-66"/>
<polyline fill="none" stroke="gray" points="69.5,-66 69.5,-78 "/>
<path fill="none" stroke="gray" d="M69.5,-78C69.5,-84 63.5,-90 57.5,-90"/>
<polyline fill="none" stroke="gray" points="57.5,-90 12.5,-90 "/>
<path fill="none" stroke="gray" d="M12.5,-90C6.5,-90 0.5,-84 0.5,-78"/>
<polyline fill="none" stroke="gray" points="0.5,-78 0.5,-66 "/>
<path fill="none" stroke="gray" d="M0.5,-66C0.5,-60 6.5,-54 12.5,-54"/>
<text text-anchor="middle" x="13.5" y="-68.9" font-family="Times Roman,serif" font-size="14.00">H</text>
<polyline fill="none" stroke="gray" points="26.5,-54 26.5,-90 "/>
<text text-anchor="middle" x="48" y="-68.9" font-family="Times Roman,serif" font-size="14.00">Next</text>
</g>
<!-- NodeA -->
<g id="node2" class="node"><title>NodeA</title>
<polygon fill="orange" stroke="orange" points="118.5,-54 163.5,-54 175.5,-66 175.5,-78 163.5,-90 118.5,-90 106.5,-78 106.5,-66 118.5,-54"/>
<path fill="orange" stroke="orange" d="M163.5,-54C169.5,-54 175.5,-60 175.5,-66"/>
<path fill="orange" stroke="orange" d="M175.5,-78C175.5,-84 169.5,-90 163.5,-90"/>
<path fill="orange" stroke="orange" d="M118.5,-90C112.5,-90 106.5,-84 106.5,-78"/>
<path fill="orange" stroke="orange" d="M106.5,-66C106.5,-60 112.5,-54 118.5,-54"/>
<polyline fill="none" stroke="gray" points="118.5,-54 163.5,-54 "/>
<path fill="none" stroke="gray" d="M163.5,-54C169.5,-54 175.5,-60 175.5,-66"/>
<polyline fill="none" stroke="gray" points="175.5,-66 175.5,-78 "/>
<path fill="none" stroke="gray" d="M175.5,-78C175.5,-84 169.5,-90 163.5,-90"/>
<polyline fill="none" stroke="gray" points="163.5,-90 118.5,-90 "/>
<path fill="none" stroke="gray" d="M118.5,-90C112.5,-90 106.5,-84 106.5,-78"/>
<polyline fill="none" stroke="gray" points="106.5,-78 106.5,-66 "/>
<path fill="none" stroke="gray" d="M106.5,-66C106.5,-60 112.5,-54 118.5,-54"/>
<text text-anchor="middle" x="119.5" y="-68.9" font-family="Times Roman,serif" font-size="14.00">A</text>
<polyline fill="none" stroke="gray" points="132.5,-54 132.5,-90 "/>
<text text-anchor="middle" x="154" y="-68.9" font-family="Times Roman,serif" font-size="14.00">Next</text>
</g>
<!-- NodeH&#45;&gt;NodeA -->
<g id="edge2" class="edge"><title>NodeH:f&#45;&gt;NodeA</title>
<path fill="none" stroke="black" d="M70,-72C78.5052,-72 87.5835,-72 96.3081,-72"/>
<polygon fill="black" stroke="black" points="96.3321,-75.5001 106.332,-72 96.332,-68.5001 96.3321,-75.5001"/>
</g>
<!-- NodeEE -->
<g id="node4" class="node"><title>NodeEE</title>
<polygon fill="orange" stroke="orange" points="224,-54 270,-54 282,-66 282,-78 270,-90 224,-90 212,-78 212,-66 224,-54"/>
<path fill="orange" stroke="orange" d="M270,-54C276,-54 282,-60 282,-66"/>
<path fill="orange" stroke="orange" d="M282,-78C282,-84 276,-90 270,-90"/>
<path fill="orange" stroke="orange" d="M224,-90C218,-90 212,-84 212,-78"/>
<path fill="orange" stroke="orange" d="M212,-66C212,-60 218,-54 224,-54"/>
<polyline fill="none" stroke="gray" points="224,-54 270,-54 "/>
<path fill="none" stroke="gray" d="M270,-54C276,-54 282,-60 282,-66"/>
<polyline fill="none" stroke="gray" points="282,-66 282,-78 "/>
<path fill="none" stroke="gray" d="M282,-78C282,-84 276,-90 270,-90"/>
<polyline fill="none" stroke="gray" points="270,-90 224,-90 "/>
<path fill="none" stroke="gray" d="M224,-90C218,-90 212,-84 212,-78"/>
<polyline fill="none" stroke="gray" points="212,-78 212,-66 "/>
<path fill="none" stroke="gray" d="M212,-66C212,-60 218,-54 224,-54"/>
<text text-anchor="middle" x="225.5" y="-68.9" font-family="Times Roman,serif" font-size="14.00" fill="green">E&#39;</text>
<polyline fill="none" stroke="gray" points="239,-54 239,-90 "/>
<text text-anchor="middle" x="260.5" y="-68.9" font-family="Times Roman,serif" font-size="14.00" fill="green">Next</text>
</g>
<!-- NodeA&#45;&gt;NodeEE -->
<g id="edge4" class="edge"><title>NodeA:f&#45;&gt;NodeEE</title>
<path fill="none" stroke="black" d="M176,-72C184.325,-72 193.199,-72 201.753,-72"/>
<polygon fill="black" stroke="black" points="201.97,-75.5001 211.97,-72 201.97,-68.5001 201.97,-75.5001"/>
</g>
<!-- NodeB -->
<g id="node3" class="node"><title>NodeB</title>
<polygon fill="orange" stroke="orange" points="330.5,-27 375.5,-27 387.5,-39 387.5,-51 375.5,-63 330.5,-63 318.5,-51 318.5,-39 330.5,-27"/>
<path fill="orange" stroke="orange" d="M375.5,-27C381.5,-27 387.5,-33 387.5,-39"/>
<path fill="orange" stroke="orange" d="M387.5,-51C387.5,-57 381.5,-63 375.5,-63"/>
<path fill="orange" stroke="orange" d="M330.5,-63C324.5,-63 318.5,-57 318.5,-51"/>
<path fill="orange" stroke="orange" d="M318.5,-39C318.5,-33 324.5,-27 330.5,-27"/>
<polyline fill="none" stroke="gray" points="330.5,-27 375.5,-27 "/>
<path fill="none" stroke="gray" d="M375.5,-27C381.5,-27 387.5,-33 387.5,-39"/>
<polyline fill="none" stroke="gray" points="387.5,-39 387.5,-51 "/>
<path fill="none" stroke="gray" d="M387.5,-51C387.5,-57 381.5,-63 375.5,-63"/>
<polyline fill="none" stroke="gray" points="375.5,-63 330.5,-63 "/>
<path fill="none" stroke="gray" d="M330.5,-63C324.5,-63 318.5,-57 318.5,-51"/>
<polyline fill="none" stroke="gray" points="318.5,-51 318.5,-39 "/>
<path fill="none" stroke="gray" d="M318.5,-39C318.5,-33 324.5,-27 330.5,-27"/>
<text text-anchor="middle" x="331.5" y="-41.9" font-family="Times Roman,serif" font-size="14.00">B</text>
<polyline fill="none" stroke="gray" points="344.5,-27 344.5,-63 "/>
<text text-anchor="middle" x="366" y="-41.9" font-family="Times Roman,serif" font-size="14.00">Next</text>
</g>
<!-- NodeC -->
<g id="node5" class="node"><title>NodeC</title>
<polygon fill="orange" stroke="orange" points="436.5,-27 481.5,-27 493.5,-39 493.5,-51 481.5,-63 436.5,-63 424.5,-51 424.5,-39 436.5,-27"/>
<path fill="orange" stroke="orange" d="M481.5,-27C487.5,-27 493.5,-33 493.5,-39"/>
<path fill="orange" stroke="orange" d="M493.5,-51C493.5,-57 487.5,-63 481.5,-63"/>
<path fill="orange" stroke="orange" d="M436.5,-63C430.5,-63 424.5,-57 424.5,-51"/>
<path fill="orange" stroke="orange" d="M424.5,-39C424.5,-33 430.5,-27 436.5,-27"/>
<polyline fill="none" stroke="gray" points="436.5,-27 481.5,-27 "/>
<path fill="none" stroke="gray" d="M481.5,-27C487.5,-27 493.5,-33 493.5,-39"/>
<polyline fill="none" stroke="gray" points="493.5,-39 493.5,-51 "/>
<path fill="none" stroke="gray" d="M493.5,-51C493.5,-57 487.5,-63 481.5,-63"/>
<polyline fill="none" stroke="gray" points="481.5,-63 436.5,-63 "/>
<path fill="none" stroke="gray" d="M436.5,-63C430.5,-63 424.5,-57 424.5,-51"/>
<polyline fill="none" stroke="gray" points="424.5,-51 424.5,-39 "/>
<path fill="none" stroke="gray" d="M424.5,-39C424.5,-33 430.5,-27 436.5,-27"/>
<text text-anchor="middle" x="437.5" y="-41.9" font-family="Times Roman,serif" font-size="14.00">C</text>
<polyline fill="none" stroke="gray" points="450.5,-27 450.5,-63 "/>
<text text-anchor="middle" x="472" y="-41.9" font-family="Times Roman,serif" font-size="14.00">Next</text>
</g>
<!-- NodeB&#45;&gt;NodeC -->
<g id="edge8" class="edge"><title>NodeB:f&#45;&gt;NodeC</title>
<path fill="none" stroke="black" d="M388,-45C396.505,-45 405.584,-45 414.308,-45"/>
<polygon fill="black" stroke="black" points="414.332,-48.5001 424.332,-45 414.332,-41.5001 414.332,-48.5001"/>
</g>
<!-- NodeEE&#45;&gt;NodeB -->
<g id="edge6" class="edge"><title>NodeEE:f&#45;&gt;NodeB</title>
<path fill="none" stroke="black" d="M282,-72C291.69,-72 301.666,-69.7758 310.967,-66.6041"/>
<polygon fill="black" stroke="black" points="312.281,-69.8485 320.373,-63.0094 309.783,-63.3097 312.281,-69.8485"/>
</g>
<!-- NodeD -->
<g id="node6" class="node"><title>NodeD</title>
<polygon fill="orange" stroke="orange" points="542.5,-27 587.5,-27 599.5,-39 599.5,-51 587.5,-63 542.5,-63 530.5,-51 530.5,-39 542.5,-27"/>
<path fill="orange" stroke="orange" d="M587.5,-27C593.5,-27 599.5,-33 599.5,-39"/>
<path fill="orange" stroke="orange" d="M599.5,-51C599.5,-57 593.5,-63 587.5,-63"/>
<path fill="orange" stroke="orange" d="M542.5,-63C536.5,-63 530.5,-57 530.5,-51"/>
<path fill="orange" stroke="orange" d="M530.5,-39C530.5,-33 536.5,-27 542.5,-27"/>
<polyline fill="none" stroke="gray" points="542.5,-27 587.5,-27 "/>
<path fill="none" stroke="gray" d="M587.5,-27C593.5,-27 599.5,-33 599.5,-39"/>
<polyline fill="none" stroke="gray" points="599.5,-39 599.5,-51 "/>
<path fill="none" stroke="gray" d="M599.5,-51C599.5,-57 593.5,-63 587.5,-63"/>
<polyline fill="none" stroke="gray" points="587.5,-63 542.5,-63 "/>
<path fill="none" stroke="gray" d="M542.5,-63C536.5,-63 530.5,-57 530.5,-51"/>
<polyline fill="none" stroke="gray" points="530.5,-51 530.5,-39 "/>
<path fill="none" stroke="gray" d="M530.5,-39C530.5,-33 536.5,-27 542.5,-27"/>
<text text-anchor="middle" x="543.5" y="-41.9" font-family="Times Roman,serif" font-size="14.00">D</text>
<polyline fill="none" stroke="gray" points="556.5,-27 556.5,-63 "/>
<text text-anchor="middle" x="578" y="-41.9" font-family="Times Roman,serif" font-size="14.00">Next</text>
</g>
<!-- NodeC&#45;&gt;NodeD -->
<g id="edge10" class="edge"><title>NodeC:f&#45;&gt;NodeD</title>
<path fill="none" stroke="black" d="M494,-45C502.505,-45 511.584,-45 520.308,-45"/>
<polygon fill="black" stroke="black" points="520.332,-48.5001 530.332,-45 520.332,-41.5001 520.332,-48.5001"/>
</g>
<!-- NodeN -->
<g id="node7" class="node"><title>NodeN</title>
<polygon fill="gray" stroke="gray" points="648,-27 678,-27 690,-39 690,-51 678,-63 648,-63 636,-51 636,-39 648,-27"/>
<path fill="gray" stroke="gray" d="M678,-27C684,-27 690,-33 690,-39"/>
<path fill="gray" stroke="gray" d="M690,-51C690,-57 684,-63 678,-63"/>
<path fill="gray" stroke="gray" d="M648,-63C642,-63 636,-57 636,-51"/>
<path fill="gray" stroke="gray" d="M636,-39C636,-33 642,-27 648,-27"/>
<polyline fill="none" stroke="gray" points="648,-27 678,-27 "/>
<path fill="none" stroke="gray" d="M678,-27C684,-27 690,-33 690,-39"/>
<polyline fill="none" stroke="gray" points="690,-39 690,-51 "/>
<path fill="none" stroke="gray" d="M690,-51C690,-57 684,-63 678,-63"/>
<polyline fill="none" stroke="gray" points="678,-63 648,-63 "/>
<path fill="none" stroke="gray" d="M648,-63C642,-63 636,-57 636,-51"/>
<polyline fill="none" stroke="gray" points="636,-51 636,-39 "/>
<path fill="none" stroke="gray" d="M636,-39C636,-33 642,-27 648,-27"/>
<text text-anchor="middle" x="663" y="-41.9" font-family="Times Roman,serif" font-size="14.00">Null</text>
</g>
<!-- NodeD&#45;&gt;NodeN -->
<g id="edge12" class="edge"><title>NodeD:f&#45;&gt;NodeN</title>
<path fill="none" stroke="black" d="M600,-45C608.229,-45 617.062,-45 625.434,-45"/>
<polygon fill="black" stroke="black" points="625.711,-48.5001 635.711,-45 625.711,-41.5001 625.711,-48.5001"/>
</g>
<!-- NodeE -->
<g id="node14" class="node"><title>NodeE</title>
<polygon fill="cyan" stroke="cyan" points="225,-0 269,-0 281,-12 281,-24 269,-36 225,-36 213,-24 213,-12 225,-0"/>
<path fill="cyan" stroke="cyan" d="M269,-0C275,-0 281,-6 281,-12"/>
<path fill="cyan" stroke="cyan" d="M281,-24C281,-30 275,-36 269,-36"/>
<path fill="cyan" stroke="cyan" d="M225,-36C219,-36 213,-30 213,-24"/>
<path fill="cyan" stroke="cyan" d="M213,-12C213,-6 219,-0 225,-0"/>
<polyline fill="none" stroke="gray" points="225,-0 269,-0 "/>
<path fill="none" stroke="gray" d="M269,-0C275,-0 281,-6 281,-12"/>
<polyline fill="none" stroke="gray" points="281,-12 281,-24 "/>
<path fill="none" stroke="gray" d="M281,-24C281,-30 275,-36 269,-36"/>
<polyline fill="none" stroke="gray" points="269,-36 225,-36 "/>
<path fill="none" stroke="gray" d="M225,-36C219,-36 213,-30 213,-24"/>
<polyline fill="none" stroke="gray" points="213,-24 213,-12 "/>
<path fill="none" stroke="gray" d="M213,-12C213,-6 219,-0 225,-0"/>
<text text-anchor="middle" x="225.5" y="-14.9" font-family="Times Roman,serif" font-size="14.00">E</text>
<polyline fill="none" stroke="gray" points="238,-0 238,-36 "/>
<text text-anchor="middle" x="259.5" y="-14.9" font-family="Times Roman,serif" font-size="14.00">Next</text>
</g>
<!-- NodeE&#45;&gt;NodeB -->
<g id="edge14" class="edge"><title>NodeE:f&#45;&gt;NodeB</title>
<path fill="none" stroke="black" d="M281,-18C290.809,-18 300.919,-20.2242 310.348,-23.3959"/>
<polygon fill="black" stroke="black" points="309.296,-26.7395 319.888,-26.9906 311.764,-20.1891 309.296,-26.7395"/>
</g>
</g>
</svg>
