<?xml version="1.0" encoding="UTF-8" standalone="no"?>
<!DOCTYPE svg PUBLIC "-//W3C//DTD SVG 1.1//EN"
 "http://www.w3.org/Graphics/SVG/1.1/DTD/svg11.dtd">
<!-- Generated by graphviz version 2.26.3 (20100126.1600)
 -->
<!-- Title: Aremoved Pages: 1 -->
<svg width="486pt" height="152pt"
 viewBox="0.00 0.00 486.00 152.00" xmlns="http://www.w3.org/2000/svg" xmlns:xlink="http://www.w3.org/1999/xlink">
<g id="graph1" class="graph" transform="scale(1 1) rotate(0) translate(4 148)">
<title>Aremoved</title>
<polygon fill="white" stroke="white" points="-4,5 -4,-148 483,-148 483,5 -4,5"/>
<!-- NodeH -->
<g id="node1" class="node"><title>NodeH</title>
<polygon fill="orange" stroke="orange" points="12.5,-108 57.5,-108 69.5,-120 69.5,-132 57.5,-144 12.5,-144 0.5,-132 0.5,-120 12.5,-108"/>
<path fill="orange" stroke="orange" d="M57.5,-108C63.5,-108 69.5,-114 69.5,-120"/>
<path fill="orange" stroke="orange" d="M69.5,-132C69.5,-138 63.5,-144 57.5,-144"/>
<path fill="orange" stroke="orange" d="M12.5,-144C6.5,-144 0.5,-138 0.5,-132"/>
<path fill="orange" stroke="orange" d="M0.5,-120C0.5,-114 6.5,-108 12.5,-108"/>
<polyline fill="none" stroke="gray" points="12.5,-108 57.5,-108 "/>
<path fill="none" stroke="gray" d="M57.5,-108C63.5,-108 69.5,-114 69.5,-120"/>
<polyline fill="none" stroke="gray" points="69.5,-120 69.5,-132 "/>
<path fill="none" stroke="gray" d="M69.5,-132C69.5,-138 63.5,-144 57.5,-144"/>
<polyline fill="none" stroke="gray" points="57.5,-144 12.5,-144 "/>
<path fill="none" stroke="gray" d="M12.5,-144C6.5,-144 0.5,-138 0.5,-132"/>
<polyline fill="none" stroke="gray" points="0.5,-132 0.5,-120 "/>
<path fill="none" stroke="gray" d="M0.5,-120C0.5,-114 6.5,-108 12.5,-108"/>
<text text-anchor="middle" x="13.5" y="-122.9" font-family="Times Roman,serif" font-size="14.00">H</text>
<polyline fill="none" stroke="gray" points="26.5,-108 26.5,-144 "/>
<text text-anchor="middle" x="48" y="-122.9" font-family="Times Roman,serif" font-size="14.00">Next</text>
</g>
<!-- NodeB -->
<g id="node3" class="node"><title>NodeB</title>
<polygon fill="orange" stroke="orange" points="118.5,-54 163.5,-54 175.5,-66 175.5,-78 163.5,-90 118.5,-90 106.5,-78 106.5,-66 118.5,-54"/>
<path fill="orange" stroke="orange" d="M163.5,-54C169.5,-54 175.5,-60 175.5,-66"/>
<path fill="orange" stroke="orange" d="M175.5,-78C175.5,-84 169.5,-90 163.5,-90"/>
<path fill="orange" stroke="orange" d="M118.5,-90C112.5,-90 106.5,-84 106.5,-78"/>
<path fill="orange" stroke="orange" d="M106.5,-66C106.5,-60 112.5,-54 118.5,-54"/>
<polyline fill="none" stroke="gray" points="118.5,-54 163.5,-54 "/>
<path fill="none" stroke="gray" d="M163.5,-54C169.5,-54 175.5,-60 175.5,-66"/>
<polyline fill="none" stroke="gray" points="175.5,-66 175.5,-78 "/>
<path fill="none" stroke="gray" d="M175.5,-78C175.5,-84 169.5,-90 163.5,-90"/>
<polyline fill="none" stroke="gray" points="163.5,-90 118.5,-90 "/>
<path fill="none" stroke="gray" d="M118.5,-90C112.5,-90 106.5,-84 106.5,-78"/>
<polyline fill="none" stroke="gray" points="106.5,-78 106.5,-66 "/>
<path fill="none" stroke="gray" d="M106.5,-66C106.5,-60 112.5,-54 118.5,-54"/>
<text text-anchor="middle" x="119.5" y="-68.9" font-family="Times Roman,serif" font-size="14.00">B</text>
<polyline fill="none" stroke="gray" points="132.5,-54 132.5,-90 "/>
<text text-anchor="middle" x="154" y="-68.9" font-family="Times Roman,serif" font-size="14.00">Next</text>
</g>
<!-- NodeH&#45;&gt;NodeB -->
<g id="edge2" class="edge"><title>NodeH:f&#45;&gt;NodeB</title>
<path fill="none" stroke="black" d="M70,-126C90.3841,-126 108.576,-111.725 121.442,-97.8533"/>
<polygon fill="black" stroke="black" points="124.104,-100.126 128.022,-90.2819 118.82,-95.5343 124.104,-100.126"/>
</g>
<!-- NodeA -->
<g id="node2" class="node"><title>NodeA</title>
<polygon fill="green" stroke="green" points="12.5,-54 57.5,-54 69.5,-66 69.5,-78 57.5,-90 12.5,-90 0.5,-78 0.5,-66 12.5,-54"/>
<path fill="green" stroke="green" d="M57.5,-54C63.5,-54 69.5,-60 69.5,-66"/>
<path fill="green" stroke="green" d="M69.5,-78C69.5,-84 63.5,-90 57.5,-90"/>
<path fill="green" stroke="green" d="M12.5,-90C6.5,-90 0.5,-84 0.5,-78"/>
<path fill="green" stroke="green" d="M0.5,-66C0.5,-60 6.5,-54 12.5,-54"/>
<polyline fill="none" stroke="gray" points="12.5,-54 57.5,-54 "/>
<path fill="none" stroke="gray" d="M57.5,-54C63.5,-54 69.5,-60 69.5,-66"/>
<polyline fill="none" stroke="gray" points="69.5,-66 69.5,-78 "/>
<path fill="none" stroke="gray" d="M69.5,-78C69.5,-84 63.5,-90 57.5,-90"/>
<polyline fill="none" stroke="gray" points="57.5,-90 12.5,-90 "/>
<path fill="none" stroke="gray" d="M12.5,-90C6.5,-90 0.5,-84 0.5,-78"/>
<polyline fill="none" stroke="gray" points="0.5,-78 0.5,-66 "/>
<path fill="none" stroke="gray" d="M0.5,-66C0.5,-60 6.5,-54 12.5,-54"/>
<text text-anchor="middle" x="13.5" y="-68.9" font-family="Times Roman,serif" font-size="14.00">A</text>
<polyline fill="none" stroke="gray" points="26.5,-54 26.5,-90 "/>
<text text-anchor="middle" x="48" y="-68.9" font-family="Times Roman,serif" font-size="14.00">Next</text>
</g>
<!-- NodeA&#45;&gt;NodeB -->
<g id="edge4" class="edge"><title>NodeA:f&#45;&gt;NodeB</title>
<path fill="none" stroke="black" d="M70,-72C78.5052,-72 87.5835,-72 96.3081,-72"/>
<polygon fill="black" stroke="black" points="96.3321,-75.5001 106.332,-72 96.332,-68.5001 96.3321,-75.5001"/>
</g>
<!-- NodeC -->
<g id="node4" class="node"><title>NodeC</title>
<polygon fill="orange" stroke="orange" points="224.5,-54 269.5,-54 281.5,-66 281.5,-78 269.5,-90 224.5,-90 212.5,-78 212.5,-66 224.5,-54"/>
<path fill="orange" stroke="orange" d="M269.5,-54C275.5,-54 281.5,-60 281.5,-66"/>
<path fill="orange" stroke="orange" d="M281.5,-78C281.5,-84 275.5,-90 269.5,-90"/>
<path fill="orange" stroke="orange" d="M224.5,-90C218.5,-90 212.5,-84 212.5,-78"/>
<path fill="orange" stroke="orange" d="M212.5,-66C212.5,-60 218.5,-54 224.5,-54"/>
<polyline fill="none" stroke="gray" points="224.5,-54 269.5,-54 "/>
<path fill="none" stroke="gray" d="M269.5,-54C275.5,-54 281.5,-60 281.5,-66"/>
<polyline fill="none" stroke="gray" points="281.5,-66 281.5,-78 "/>
<path fill="none" stroke="gray" d="M281.5,-78C281.5,-84 275.5,-90 269.5,-90"/>
<polyline fill="none" stroke="gray" points="269.5,-90 224.5,-90 "/>
<path fill="none" stroke="gray" d="M224.5,-90C218.5,-90 212.5,-84 212.5,-78"/>
<polyline fill="none" stroke="gray" points="212.5,-78 212.5,-66 "/>
<path fill="none" stroke="gray" d="M212.5,-66C212.5,-60 218.5,-54 224.5,-54"/>
<text text-anchor="middle" x="225.5" y="-68.9" font-family="Times Roman,serif" font-size="14.00">C</text>
<polyline fill="none" stroke="gray" points="238.5,-54 238.5,-90 "/>
<text text-anchor="middle" x="260" y="-68.9" font-family="Times Roman,serif" font-size="14.00">Next</text>
</g>
<!-- NodeB&#45;&gt;NodeC -->
<g id="edge6" class="edge"><title>NodeB:f&#45;&gt;NodeC</title>
<path fill="none" stroke="black" d="M176,-72C184.505,-72 193.584,-72 202.308,-72"/>
<polygon fill="black" stroke="black" points="202.332,-75.5001 212.332,-72 202.332,-68.5001 202.332,-75.5001"/>
</g>
<!-- NodeD -->
<g id="node5" class="node"><title>NodeD</title>
<polygon fill="orange" stroke="orange" points="330.5,-54 375.5,-54 387.5,-66 387.5,-78 375.5,-90 330.5,-90 318.5,-78 318.5,-66 330.5,-54"/>
<path fill="orange" stroke="orange" d="M375.5,-54C381.5,-54 387.5,-60 387.5,-66"/>
<path fill="orange" stroke="orange" d="M387.5,-78C387.5,-84 381.5,-90 375.5,-90"/>
<path fill="orange" stroke="orange" d="M330.5,-90C324.5,-90 318.5,-84 318.5,-78"/>
<path fill="orange" stroke="orange" d="M318.5,-66C318.5,-60 324.5,-54 330.5,-54"/>
<polyline fill="none" stroke="gray" points="330.5,-54 375.5,-54 "/>
<path fill="none" stroke="gray" d="M375.5,-54C381.5,-54 387.5,-60 387.5,-66"/>
<polyline fill="none" stroke="gray" points="387.5,-66 387.5,-78 "/>
<path fill="none" stroke="gray" d="M387.5,-78C387.5,-84 381.5,-90 375.5,-90"/>
<polyline fill="none" stroke="gray" points="375.5,-90 330.5,-90 "/>
<path fill="none" stroke="gray" d="M330.5,-90C324.5,-90 318.5,-84 318.5,-78"/>
<polyline fill="none" stroke="gray" points="318.5,-78 318.5,-66 "/>
<path fill="none" stroke="gray" d="M318.5,-66C318.5,-60 324.5,-54 330.5,-54"/>
<text text-anchor="middle" x="331.5" y="-68.9" font-family="Times Roman,serif" font-size="14.00">D</text>
<polyline fill="none" stroke="gray" points="344.5,-54 344.5,-90 "/>
<text text-anchor="middle" x="366" y="-68.9" font-family="Times Roman,serif" font-size="14.00">Next</text>
</g>
<!-- NodeC&#45;&gt;NodeD -->
<g id="edge8" class="edge"><title>NodeC:f&#45;&gt;NodeD</title>
<path fill="none" stroke="black" d="M282,-72C290.505,-72 299.584,-72 308.308,-72"/>
<polygon fill="black" stroke="black" points="308.332,-75.5001 318.332,-72 308.332,-68.5001 308.332,-75.5001"/>
</g>
<!-- NodeN -->
<g id="node6" class="node"><title>NodeN</title>
<polygon fill="gray" stroke="gray" points="436,-54 466,-54 478,-66 478,-78 466,-90 436,-90 424,-78 424,-66 436,-54"/>
<path fill="gray" stroke="gray" d="M466,-54C472,-54 478,-60 478,-66"/>
<path fill="gray" stroke="gray" d="M478,-78C478,-84 472,-90 466,-90"/>
<path fill="gray" stroke="gray" d="M436,-90C430,-90 424,-84 424,-78"/>
<path fill="gray" stroke="gray" d="M424,-66C424,-60 430,-54 436,-54"/>
<polyline fill="none" stroke="gray" points="436,-54 466,-54 "/>
<path fill="none" stroke="gray" d="M466,-54C472,-54 478,-60 478,-66"/>
<polyline fill="none" stroke="gray" points="478,-66 478,-78 "/>
<path fill="none" stroke="gray" d="M478,-78C478,-84 472,-90 466,-90"/>
<polyline fill="none" stroke="gray" points="466,-90 436,-90 "/>
<path fill="none" stroke="gray" d="M436,-90C430,-90 424,-84 424,-78"/>
<polyline fill="none" stroke="gray" points="424,-78 424,-66 "/>
<path fill="none" stroke="gray" d="M424,-66C424,-60 430,-54 436,-54"/>
<text text-anchor="middle" x="451" y="-68.9" font-family="Times Roman,serif" font-size="14.00">Null</text>
</g>
<!-- NodeD&#45;&gt;NodeN -->
<g id="edge10" class="edge"><title>NodeD:f&#45;&gt;NodeN</title>
<path fill="none" stroke="black" d="M388,-72C396.229,-72 405.062,-72 413.434,-72"/>
<polygon fill="black" stroke="black" points="413.711,-75.5001 423.711,-72 413.711,-68.5001 413.711,-75.5001"/>
</g>
<!-- NodeE -->
<g id="node12" class="node"><title>NodeE</title>
<polygon fill="cyan" stroke="cyan" points="13,-0 57,-0 69,-12 69,-24 57,-36 13,-36 1,-24 1,-12 13,-0"/>
<path fill="cyan" stroke="cyan" d="M57,-0C63,-0 69,-6 69,-12"/>
<path fill="cyan" stroke="cyan" d="M69,-24C69,-30 63,-36 57,-36"/>
<path fill="cyan" stroke="cyan" d="M13,-36C7,-36 1,-30 1,-24"/>
<path fill="cyan" stroke="cyan" d="M1,-12C1,-6 7,-0 13,-0"/>
<polyline fill="none" stroke="gray" points="13,-0 57,-0 "/>
<path fill="none" stroke="gray" d="M57,-0C63,-0 69,-6 69,-12"/>
<polyline fill="none" stroke="gray" points="69,-12 69,-24 "/>
<path fill="none" stroke="gray" d="M69,-24C69,-30 63,-36 57,-36"/>
<polyline fill="none" stroke="gray" points="57,-36 13,-36 "/>
<path fill="none" stroke="gray" d="M13,-36C7,-36 1,-30 1,-24"/>
<polyline fill="none" stroke="gray" points="1,-24 1,-12 "/>
<path fill="none" stroke="gray" d="M1,-12C1,-6 7,-0 13,-0"/>
<text text-anchor="middle" x="13.5" y="-14.9" font-family="Times Roman,serif" font-size="14.00">E</text>
<polyline fill="none" stroke="gray" points="26,-0 26,-36 "/>
<text text-anchor="middle" x="47.5" y="-14.9" font-family="Times Roman,serif" font-size="14.00">Next</text>
</g>
<!-- NodeE&#45;&gt;NodeB -->
<g id="edge12" class="edge"><title>NodeE:f&#45;&gt;NodeB</title>
<path fill="none" stroke="black" d="M69,-18C89.5664,-18 108.018,-32.2755 121.092,-46.1467"/>
<polygon fill="black" stroke="black" points="118.538,-48.5415 127.782,-53.7181 123.784,-43.9067 118.538,-48.5415"/>
</g>
</g>
</svg>
