<?xml version="1.0" encoding="UTF-8" standalone="no"?>
<!DOCTYPE svg PUBLIC "-//W3C//DTD SVG 1.1//EN"
 "http://www.w3.org/Graphics/SVG/1.1/DTD/svg11.dtd">
<!-- Generated by graphviz version 2.26.3 (20100126.1600)
 -->
<!-- Title: Linking Pages: 1 -->
<svg width="624pt" height="98pt"
 viewBox="0.00 0.00 624.00 98.00" xmlns="http://www.w3.org/2000/svg" xmlns:xlink="http://www.w3.org/1999/xlink">
<g id="graph1" class="graph" transform="scale(1 1) rotate(0) translate(4 94)">
<title>Linking</title>
<polygon fill="white" stroke="white" points="-4,5 -4,-94 621,-94 621,5 -4,5"/>
<!-- NodeH -->
<g id="node1" class="node"><title>NodeH</title>
<polygon fill="orange" stroke="orange" points="12,-54 64,-54 76,-66 76,-78 64,-90 12,-90 0,-78 0,-66 12,-54"/>
<path fill="orange" stroke="orange" d="M64,-54C70,-54 76,-60 76,-66"/>
<path fill="orange" stroke="orange" d="M76,-78C76,-84 70,-90 64,-90"/>
<path fill="orange" stroke="orange" d="M12,-90C6,-90 0,-84 0,-78"/>
<path fill="orange" stroke="orange" d="M0,-66C0,-60 6,-54 12,-54"/>
<polyline fill="none" stroke="gray" points="12,-54 64,-54 "/>
<path fill="none" stroke="gray" d="M64,-54C70,-54 76,-60 76,-66"/>
<polyline fill="none" stroke="gray" points="76,-66 76,-78 "/>
<path fill="none" stroke="gray" d="M76,-78C76,-84 70,-90 64,-90"/>
<polyline fill="none" stroke="gray" points="64,-90 12,-90 "/>
<path fill="none" stroke="gray" d="M12,-90C6,-90 0,-84 0,-78"/>
<polyline fill="none" stroke="gray" points="0,-78 0,-66 "/>
<path fill="none" stroke="gray" d="M0,-66C0,-60 6,-54 12,-54"/>
<text text-anchor="middle" x="13.5" y="-68.4" font-family="Times Roman,serif" font-size="14.00">H</text>
<polyline fill="none" stroke="gray" points="27,-54 27,-90 "/>
<text text-anchor="middle" x="51.5" y="-68.4" font-family="Times Roman,serif" font-size="14.00">Next</text>
</g>
<!-- NodeA -->
<g id="node2" class="node"><title>NodeA</title>
<polygon fill="orange" stroke="orange" points="124.5,-54 175.5,-54 187.5,-66 187.5,-78 175.5,-90 124.5,-90 112.5,-78 112.5,-66 124.5,-54"/>
<path fill="orange" stroke="orange" d="M175.5,-54C181.5,-54 187.5,-60 187.5,-66"/>
<path fill="orange" stroke="orange" d="M187.5,-78C187.5,-84 181.5,-90 175.5,-90"/>
<path fill="orange" stroke="orange" d="M124.5,-90C118.5,-90 112.5,-84 112.5,-78"/>
<path fill="orange" stroke="orange" d="M112.5,-66C112.5,-60 118.5,-54 124.5,-54"/>
<polyline fill="none" stroke="gray" points="124.5,-54 175.5,-54 "/>
<path fill="none" stroke="gray" d="M175.5,-54C181.5,-54 187.5,-60 187.5,-66"/>
<polyline fill="none" stroke="gray" points="187.5,-66 187.5,-78 "/>
<path fill="none" stroke="gray" d="M187.5,-78C187.5,-84 181.5,-90 175.5,-90"/>
<polyline fill="none" stroke="gray" points="175.5,-90 124.5,-90 "/>
<path fill="none" stroke="gray" d="M124.5,-90C118.5,-90 112.5,-84 112.5,-78"/>
<polyline fill="none" stroke="gray" points="112.5,-78 112.5,-66 "/>
<path fill="none" stroke="gray" d="M112.5,-66C112.5,-60 118.5,-54 124.5,-54"/>
<text text-anchor="middle" x="125.5" y="-68.4" font-family="Times Roman,serif" font-size="14.00">A</text>
<polyline fill="none" stroke="gray" points="138.5,-54 138.5,-90 "/>
<text text-anchor="middle" x="163" y="-68.4" font-family="Times Roman,serif" font-size="14.00">Next</text>
</g>
<!-- NodeH&#45;&gt;NodeA -->
<g id="edge2" class="edge"><title>NodeH:f&#45;&gt;NodeA</title>
<path fill="none" stroke="black" d="M76,-72C84.4952,-72 93.539,-72 102.281,-72"/>
<polygon fill="black" stroke="black" points="102.354,-75.5001 112.354,-72 102.354,-68.5001 102.354,-75.5001"/>
</g>
<!-- NodeB -->
<g id="node3" class="node"><title>NodeB</title>
<polygon fill="orange" stroke="orange" points="236.5,-27 287.5,-27 299.5,-39 299.5,-51 287.5,-63 236.5,-63 224.5,-51 224.5,-39 236.5,-27"/>
<path fill="orange" stroke="orange" d="M287.5,-27C293.5,-27 299.5,-33 299.5,-39"/>
<path fill="orange" stroke="orange" d="M299.5,-51C299.5,-57 293.5,-63 287.5,-63"/>
<path fill="orange" stroke="orange" d="M236.5,-63C230.5,-63 224.5,-57 224.5,-51"/>
<path fill="orange" stroke="orange" d="M224.5,-39C224.5,-33 230.5,-27 236.5,-27"/>
<polyline fill="none" stroke="gray" points="236.5,-27 287.5,-27 "/>
<path fill="none" stroke="gray" d="M287.5,-27C293.5,-27 299.5,-33 299.5,-39"/>
<polyline fill="none" stroke="gray" points="299.5,-39 299.5,-51 "/>
<path fill="none" stroke="gray" d="M299.5,-51C299.5,-57 293.5,-63 287.5,-63"/>
<polyline fill="none" stroke="gray" points="287.5,-63 236.5,-63 "/>
<path fill="none" stroke="gray" d="M236.5,-63C230.5,-63 224.5,-57 224.5,-51"/>
<polyline fill="none" stroke="gray" points="224.5,-51 224.5,-39 "/>
<path fill="none" stroke="gray" d="M224.5,-39C224.5,-33 230.5,-27 236.5,-27"/>
<text text-anchor="middle" x="237.5" y="-41.4" font-family="Times Roman,serif" font-size="14.00">B</text>
<polyline fill="none" stroke="gray" points="250.5,-27 250.5,-63 "/>
<text text-anchor="middle" x="275" y="-41.4" font-family="Times Roman,serif" font-size="14.00">Next</text>
</g>
<!-- NodeA&#45;&gt;NodeB -->
<g id="edge4" class="edge"><title>NodeA:f&#45;&gt;NodeB</title>
<path fill="none" stroke="black" d="M188,-72C198.154,-72 208.643,-69.7287 218.419,-66.5036"/>
<polygon fill="black" stroke="black" points="219.741,-69.7467 227.917,-63.0094 217.324,-63.1771 219.741,-69.7467"/>
</g>
<!-- NodeC -->
<g id="node4" class="node"><title>NodeC</title>
<polygon fill="orange" stroke="orange" points="348.5,-27 399.5,-27 411.5,-39 411.5,-51 399.5,-63 348.5,-63 336.5,-51 336.5,-39 348.5,-27"/>
<path fill="orange" stroke="orange" d="M399.5,-27C405.5,-27 411.5,-33 411.5,-39"/>
<path fill="orange" stroke="orange" d="M411.5,-51C411.5,-57 405.5,-63 399.5,-63"/>
<path fill="orange" stroke="orange" d="M348.5,-63C342.5,-63 336.5,-57 336.5,-51"/>
<path fill="orange" stroke="orange" d="M336.5,-39C336.5,-33 342.5,-27 348.5,-27"/>
<polyline fill="none" stroke="gray" points="348.5,-27 399.5,-27 "/>
<path fill="none" stroke="gray" d="M399.5,-27C405.5,-27 411.5,-33 411.5,-39"/>
<polyline fill="none" stroke="gray" points="411.5,-39 411.5,-51 "/>
<path fill="none" stroke="gray" d="M411.5,-51C411.5,-57 405.5,-63 399.5,-63"/>
<polyline fill="none" stroke="gray" points="399.5,-63 348.5,-63 "/>
<path fill="none" stroke="gray" d="M348.5,-63C342.5,-63 336.5,-57 336.5,-51"/>
<polyline fill="none" stroke="gray" points="336.5,-51 336.5,-39 "/>
<path fill="none" stroke="gray" d="M336.5,-39C336.5,-33 342.5,-27 348.5,-27"/>
<text text-anchor="middle" x="349.5" y="-41.4" font-family="Times Roman,serif" font-size="14.00">C</text>
<polyline fill="none" stroke="gray" points="362.5,-27 362.5,-63 "/>
<text text-anchor="middle" x="387" y="-41.4" font-family="Times Roman,serif" font-size="14.00">Next</text>
</g>
<!-- NodeB&#45;&gt;NodeC -->
<g id="edge6" class="edge"><title>NodeB:f&#45;&gt;NodeC</title>
<path fill="none" stroke="black" d="M300,-45C308.495,-45 317.539,-45 326.281,-45"/>
<polygon fill="black" stroke="black" points="326.354,-48.5001 336.354,-45 326.354,-41.5001 326.354,-48.5001"/>
</g>
<!-- NodeD -->
<g id="node5" class="node"><title>NodeD</title>
<polygon fill="orange" stroke="orange" points="460.5,-27 513.5,-27 525.5,-39 525.5,-51 513.5,-63 460.5,-63 448.5,-51 448.5,-39 460.5,-27"/>
<path fill="orange" stroke="orange" d="M513.5,-27C519.5,-27 525.5,-33 525.5,-39"/>
<path fill="orange" stroke="orange" d="M525.5,-51C525.5,-57 519.5,-63 513.5,-63"/>
<path fill="orange" stroke="orange" d="M460.5,-63C454.5,-63 448.5,-57 448.5,-51"/>
<path fill="orange" stroke="orange" d="M448.5,-39C448.5,-33 454.5,-27 460.5,-27"/>
<polyline fill="none" stroke="gray" points="460.5,-27 513.5,-27 "/>
<path fill="none" stroke="gray" d="M513.5,-27C519.5,-27 525.5,-33 525.5,-39"/>
<polyline fill="none" stroke="gray" points="525.5,-39 525.5,-51 "/>
<path fill="none" stroke="gray" d="M525.5,-51C525.5,-57 519.5,-63 513.5,-63"/>
<polyline fill="none" stroke="gray" points="513.5,-63 460.5,-63 "/>
<path fill="none" stroke="gray" d="M460.5,-63C454.5,-63 448.5,-57 448.5,-51"/>
<polyline fill="none" stroke="gray" points="448.5,-51 448.5,-39 "/>
<path fill="none" stroke="gray" d="M448.5,-39C448.5,-33 454.5,-27 460.5,-27"/>
<text text-anchor="middle" x="462.5" y="-41.4" font-family="Times Roman,serif" font-size="14.00">D</text>
<polyline fill="none" stroke="gray" points="476.5,-27 476.5,-63 "/>
<text text-anchor="middle" x="501" y="-41.4" font-family="Times Roman,serif" font-size="14.00">Next</text>
</g>
<!-- NodeC&#45;&gt;NodeD -->
<g id="edge8" class="edge"><title>NodeC:f&#45;&gt;NodeD</title>
<path fill="none" stroke="black" d="M412,-45C420.516,-45 429.577,-45 438.347,-45"/>
<polygon fill="black" stroke="black" points="438.46,-48.5001 448.46,-45 438.46,-41.5001 438.46,-48.5001"/>
</g>
<!-- NodeN -->
<g id="node6" class="node"><title>NodeN</title>
<polygon fill="gray" stroke="gray" points="574,-27 604,-27 616,-39 616,-51 604,-63 574,-63 562,-51 562,-39 574,-27"/>
<path fill="gray" stroke="gray" d="M604,-27C610,-27 616,-33 616,-39"/>
<path fill="gray" stroke="gray" d="M616,-51C616,-57 610,-63 604,-63"/>
<path fill="gray" stroke="gray" d="M574,-63C568,-63 562,-57 562,-51"/>
<path fill="gray" stroke="gray" d="M562,-39C562,-33 568,-27 574,-27"/>
<polyline fill="none" stroke="gray" points="574,-27 604,-27 "/>
<path fill="none" stroke="gray" d="M604,-27C610,-27 616,-33 616,-39"/>
<polyline fill="none" stroke="gray" points="616,-39 616,-51 "/>
<path fill="none" stroke="gray" d="M616,-51C616,-57 610,-63 604,-63"/>
<polyline fill="none" stroke="gray" points="604,-63 574,-63 "/>
<path fill="none" stroke="gray" d="M574,-63C568,-63 562,-57 562,-51"/>
<polyline fill="none" stroke="gray" points="562,-51 562,-39 "/>
<path fill="none" stroke="gray" d="M562,-39C562,-33 568,-27 574,-27"/>
<text text-anchor="middle" x="589" y="-41.4" font-family="Times Roman,serif" font-size="14.00">Null</text>
</g>
<!-- NodeD&#45;&gt;NodeN -->
<g id="edge10" class="edge"><title>NodeD:f&#45;&gt;NodeN</title>
<path fill="none" stroke="black" d="M526,-45C534.229,-45 543.062,-45 551.434,-45"/>
<polygon fill="black" stroke="black" points="551.711,-48.5001 561.711,-45 551.711,-41.5001 551.711,-48.5001"/>
</g>
<!-- NodeE -->
<g id="node12" class="node"><title>NodeE</title>
<polygon fill="cyan" stroke="cyan" points="124.5,-0 175.5,-0 187.5,-12 187.5,-24 175.5,-36 124.5,-36 112.5,-24 112.5,-12 124.5,-0"/>
<path fill="cyan" stroke="cyan" d="M175.5,-0C181.5,-0 187.5,-6 187.5,-12"/>
<path fill="cyan" stroke="cyan" d="M187.5,-24C187.5,-30 181.5,-36 175.5,-36"/>
<path fill="cyan" stroke="cyan" d="M124.5,-36C118.5,-36 112.5,-30 112.5,-24"/>
<path fill="cyan" stroke="cyan" d="M112.5,-12C112.5,-6 118.5,-0 124.5,-0"/>
<polyline fill="none" stroke="gray" points="124.5,-0 175.5,-0 "/>
<path fill="none" stroke="gray" d="M175.5,-0C181.5,-0 187.5,-6 187.5,-12"/>
<polyline fill="none" stroke="gray" points="187.5,-12 187.5,-24 "/>
<path fill="none" stroke="gray" d="M187.5,-24C187.5,-30 181.5,-36 175.5,-36"/>
<polyline fill="none" stroke="gray" points="175.5,-36 124.5,-36 "/>
<path fill="none" stroke="gray" d="M124.5,-36C118.5,-36 112.5,-30 112.5,-24"/>
<polyline fill="none" stroke="gray" points="112.5,-24 112.5,-12 "/>
<path fill="none" stroke="gray" d="M112.5,-12C112.5,-6 118.5,-0 124.5,-0"/>
<text text-anchor="middle" x="125.5" y="-14.4" font-family="Times Roman,serif" font-size="14.00">E</text>
<polyline fill="none" stroke="gray" points="138.5,-0 138.5,-36 "/>
<text text-anchor="middle" x="163" y="-14.4" font-family="Times Roman,serif" font-size="14.00">Next</text>
</g>
<!-- NodeE&#45;&gt;NodeB -->
<g id="edge12" class="edge"><title>NodeE:f&#45;&gt;NodeB</title>
<path fill="none" stroke="black" d="M188,-18C198.154,-18 208.643,-20.2713 218.419,-23.4964"/>
<polygon fill="black" stroke="black" points="217.324,-26.8229 227.917,-26.9906 219.741,-20.2533 217.324,-26.8229"/>
</g>
</g>
</svg>
