<?xml version="1.0" encoding="UTF-8" standalone="no"?>
<!DOCTYPE svg PUBLIC "-//W3C//DTD SVG 1.1//EN"
 "http://www.w3.org/Graphics/SVG/1.1/DTD/svg11.dtd">
<!-- Generated by graphviz version 2.26.3 (20100126.1600)
 -->
<!-- Title: Linked Pages: 1 -->
<svg width="736pt" height="44pt"
 viewBox="0.00 0.00 736.00 44.00" xmlns="http://www.w3.org/2000/svg" xmlns:xlink="http://www.w3.org/1999/xlink">
<g id="graph1" class="graph" transform="scale(1 1) rotate(0) translate(4 40)">
<title>Linked</title>
<polygon fill="white" stroke="white" points="-4,5 -4,-40 733,-40 733,5 -4,5"/>
<!-- NodeH -->
<g id="node1" class="node"><title>NodeH</title>
<polygon fill="orange" stroke="orange" points="12,-0 64,-0 76,-12 76,-24 64,-36 12,-36 0,-24 0,-12 12,-0"/>
<path fill="orange" stroke="orange" d="M64,-0C70,-0 76,-6 76,-12"/>
<path fill="orange" stroke="orange" d="M76,-24C76,-30 70,-36 64,-36"/>
<path fill="orange" stroke="orange" d="M12,-36C6,-36 0,-30 0,-24"/>
<path fill="orange" stroke="orange" d="M0,-12C0,-6 6,-0 12,-0"/>
<polyline fill="none" stroke="gray" points="12,-0 64,-0 "/>
<path fill="none" stroke="gray" d="M64,-0C70,-0 76,-6 76,-12"/>
<polyline fill="none" stroke="gray" points="76,-12 76,-24 "/>
<path fill="none" stroke="gray" d="M76,-24C76,-30 70,-36 64,-36"/>
<polyline fill="none" stroke="gray" points="64,-36 12,-36 "/>
<path fill="none" stroke="gray" d="M12,-36C6,-36 0,-30 0,-24"/>
<polyline fill="none" stroke="gray" points="0,-24 0,-12 "/>
<path fill="none" stroke="gray" d="M0,-12C0,-6 6,-0 12,-0"/>
<text text-anchor="middle" x="13.5" y="-14.4" font-family="Times Roman,serif" font-size="14.00">H</text>
<polyline fill="none" stroke="gray" points="27,-0 27,-36 "/>
<text text-anchor="middle" x="51.5" y="-14.4" font-family="Times Roman,serif" font-size="14.00">Next</text>
</g>
<!-- NodeA -->
<g id="node2" class="node"><title>NodeA</title>
<polygon fill="orange" stroke="orange" points="124.5,-0 175.5,-0 187.5,-12 187.5,-24 175.5,-36 124.5,-36 112.5,-24 112.5,-12 124.5,-0"/>
<path fill="orange" stroke="orange" d="M175.5,-0C181.5,-0 187.5,-6 187.5,-12"/>
<path fill="orange" stroke="orange" d="M187.5,-24C187.5,-30 181.5,-36 175.5,-36"/>
<path fill="orange" stroke="orange" d="M124.5,-36C118.5,-36 112.5,-30 112.5,-24"/>
<path fill="orange" stroke="orange" d="M112.5,-12C112.5,-6 118.5,-0 124.5,-0"/>
<polyline fill="none" stroke="gray" points="124.5,-0 175.5,-0 "/>
<path fill="none" stroke="gray" d="M175.5,-0C181.5,-0 187.5,-6 187.5,-12"/>
<polyline fill="none" stroke="gray" points="187.5,-12 187.5,-24 "/>
<path fill="none" stroke="gray" d="M187.5,-24C187.5,-30 181.5,-36 175.5,-36"/>
<polyline fill="none" stroke="gray" points="175.5,-36 124.5,-36 "/>
<path fill="none" stroke="gray" d="M124.5,-36C118.5,-36 112.5,-30 112.5,-24"/>
<polyline fill="none" stroke="gray" points="112.5,-24 112.5,-12 "/>
<path fill="none" stroke="gray" d="M112.5,-12C112.5,-6 118.5,-0 124.5,-0"/>
<text text-anchor="middle" x="125.5" y="-14.4" font-family="Times Roman,serif" font-size="14.00">A</text>
<polyline fill="none" stroke="gray" points="138.5,-0 138.5,-36 "/>
<text text-anchor="middle" x="163" y="-14.4" font-family="Times Roman,serif" font-size="14.00">Next</text>
</g>
<!-- NodeH&#45;&gt;NodeA -->
<g id="edge2" class="edge"><title>NodeH:f&#45;&gt;NodeA</title>
<path fill="none" stroke="black" d="M76,-18C84.4952,-18 93.539,-18 102.281,-18"/>
<polygon fill="black" stroke="black" points="102.354,-21.5001 112.354,-18 102.354,-14.5001 102.354,-21.5001"/>
</g>
<!-- NodeE -->
<g id="node7" class="node"><title>NodeE</title>
<polygon fill="cyan" stroke="cyan" points="236.5,-0 287.5,-0 299.5,-12 299.5,-24 287.5,-36 236.5,-36 224.5,-24 224.5,-12 236.5,-0"/>
<path fill="cyan" stroke="cyan" d="M287.5,-0C293.5,-0 299.5,-6 299.5,-12"/>
<path fill="cyan" stroke="cyan" d="M299.5,-24C299.5,-30 293.5,-36 287.5,-36"/>
<path fill="cyan" stroke="cyan" d="M236.5,-36C230.5,-36 224.5,-30 224.5,-24"/>
<path fill="cyan" stroke="cyan" d="M224.5,-12C224.5,-6 230.5,-0 236.5,-0"/>
<polyline fill="none" stroke="gray" points="236.5,-0 287.5,-0 "/>
<path fill="none" stroke="gray" d="M287.5,-0C293.5,-0 299.5,-6 299.5,-12"/>
<polyline fill="none" stroke="gray" points="299.5,-12 299.5,-24 "/>
<path fill="none" stroke="gray" d="M299.5,-24C299.5,-30 293.5,-36 287.5,-36"/>
<polyline fill="none" stroke="gray" points="287.5,-36 236.5,-36 "/>
<path fill="none" stroke="gray" d="M236.5,-36C230.5,-36 224.5,-30 224.5,-24"/>
<polyline fill="none" stroke="gray" points="224.5,-24 224.5,-12 "/>
<path fill="none" stroke="gray" d="M224.5,-12C224.5,-6 230.5,-0 236.5,-0"/>
<text text-anchor="middle" x="237.5" y="-14.4" font-family="Times Roman,serif" font-size="14.00">E</text>
<polyline fill="none" stroke="gray" points="250.5,-0 250.5,-36 "/>
<text text-anchor="middle" x="275" y="-14.4" font-family="Times Roman,serif" font-size="14.00">Next</text>
</g>
<!-- NodeA&#45;&gt;NodeE -->
<g id="edge4" class="edge"><title>NodeA:f&#45;&gt;NodeE</title>
<path fill="none" stroke="black" d="M188,-18C196.495,-18 205.539,-18 214.281,-18"/>
<polygon fill="black" stroke="black" points="214.354,-21.5001 224.354,-18 214.354,-14.5001 214.354,-21.5001"/>
</g>
<!-- NodeB -->
<g id="node3" class="node"><title>NodeB</title>
<polygon fill="orange" stroke="orange" points="348.5,-0 399.5,-0 411.5,-12 411.5,-24 399.5,-36 348.5,-36 336.5,-24 336.5,-12 348.5,-0"/>
<path fill="orange" stroke="orange" d="M399.5,-0C405.5,-0 411.5,-6 411.5,-12"/>
<path fill="orange" stroke="orange" d="M411.5,-24C411.5,-30 405.5,-36 399.5,-36"/>
<path fill="orange" stroke="orange" d="M348.5,-36C342.5,-36 336.5,-30 336.5,-24"/>
<path fill="orange" stroke="orange" d="M336.5,-12C336.5,-6 342.5,-0 348.5,-0"/>
<polyline fill="none" stroke="gray" points="348.5,-0 399.5,-0 "/>
<path fill="none" stroke="gray" d="M399.5,-0C405.5,-0 411.5,-6 411.5,-12"/>
<polyline fill="none" stroke="gray" points="411.5,-12 411.5,-24 "/>
<path fill="none" stroke="gray" d="M411.5,-24C411.5,-30 405.5,-36 399.5,-36"/>
<polyline fill="none" stroke="gray" points="399.5,-36 348.5,-36 "/>
<path fill="none" stroke="gray" d="M348.5,-36C342.5,-36 336.5,-30 336.5,-24"/>
<polyline fill="none" stroke="gray" points="336.5,-24 336.5,-12 "/>
<path fill="none" stroke="gray" d="M336.5,-12C336.5,-6 342.5,-0 348.5,-0"/>
<text text-anchor="middle" x="349.5" y="-14.4" font-family="Times Roman,serif" font-size="14.00">B</text>
<polyline fill="none" stroke="gray" points="362.5,-0 362.5,-36 "/>
<text text-anchor="middle" x="387" y="-14.4" font-family="Times Roman,serif" font-size="14.00">Next</text>
</g>
<!-- NodeC -->
<g id="node4" class="node"><title>NodeC</title>
<polygon fill="orange" stroke="orange" points="460.5,-0 511.5,-0 523.5,-12 523.5,-24 511.5,-36 460.5,-36 448.5,-24 448.5,-12 460.5,-0"/>
<path fill="orange" stroke="orange" d="M511.5,-0C517.5,-0 523.5,-6 523.5,-12"/>
<path fill="orange" stroke="orange" d="M523.5,-24C523.5,-30 517.5,-36 511.5,-36"/>
<path fill="orange" stroke="orange" d="M460.5,-36C454.5,-36 448.5,-30 448.5,-24"/>
<path fill="orange" stroke="orange" d="M448.5,-12C448.5,-6 454.5,-0 460.5,-0"/>
<polyline fill="none" stroke="gray" points="460.5,-0 511.5,-0 "/>
<path fill="none" stroke="gray" d="M511.5,-0C517.5,-0 523.5,-6 523.5,-12"/>
<polyline fill="none" stroke="gray" points="523.5,-12 523.5,-24 "/>
<path fill="none" stroke="gray" d="M523.5,-24C523.5,-30 517.5,-36 511.5,-36"/>
<polyline fill="none" stroke="gray" points="511.5,-36 460.5,-36 "/>
<path fill="none" stroke="gray" d="M460.5,-36C454.5,-36 448.5,-30 448.5,-24"/>
<polyline fill="none" stroke="gray" points="448.5,-24 448.5,-12 "/>
<path fill="none" stroke="gray" d="M448.5,-12C448.5,-6 454.5,-0 460.5,-0"/>
<text text-anchor="middle" x="461.5" y="-14.4" font-family="Times Roman,serif" font-size="14.00">C</text>
<polyline fill="none" stroke="gray" points="474.5,-0 474.5,-36 "/>
<text text-anchor="middle" x="499" y="-14.4" font-family="Times Roman,serif" font-size="14.00">Next</text>
</g>
<!-- NodeB&#45;&gt;NodeC -->
<g id="edge8" class="edge"><title>NodeB:f&#45;&gt;NodeC</title>
<path fill="none" stroke="black" d="M412,-18C420.495,-18 429.539,-18 438.281,-18"/>
<polygon fill="black" stroke="black" points="438.354,-21.5001 448.354,-18 438.354,-14.5001 438.354,-21.5001"/>
</g>
<!-- NodeD -->
<g id="node5" class="node"><title>NodeD</title>
<polygon fill="orange" stroke="orange" points="572.5,-0 625.5,-0 637.5,-12 637.5,-24 625.5,-36 572.5,-36 560.5,-24 560.5,-12 572.5,-0"/>
<path fill="orange" stroke="orange" d="M625.5,-0C631.5,-0 637.5,-6 637.5,-12"/>
<path fill="orange" stroke="orange" d="M637.5,-24C637.5,-30 631.5,-36 625.5,-36"/>
<path fill="orange" stroke="orange" d="M572.5,-36C566.5,-36 560.5,-30 560.5,-24"/>
<path fill="orange" stroke="orange" d="M560.5,-12C560.5,-6 566.5,-0 572.5,-0"/>
<polyline fill="none" stroke="gray" points="572.5,-0 625.5,-0 "/>
<path fill="none" stroke="gray" d="M625.5,-0C631.5,-0 637.5,-6 637.5,-12"/>
<polyline fill="none" stroke="gray" points="637.5,-12 637.5,-24 "/>
<path fill="none" stroke="gray" d="M637.5,-24C637.5,-30 631.5,-36 625.5,-36"/>
<polyline fill="none" stroke="gray" points="625.5,-36 572.5,-36 "/>
<path fill="none" stroke="gray" d="M572.5,-36C566.5,-36 560.5,-30 560.5,-24"/>
<polyline fill="none" stroke="gray" points="560.5,-24 560.5,-12 "/>
<path fill="none" stroke="gray" d="M560.5,-12C560.5,-6 566.5,-0 572.5,-0"/>
<text text-anchor="middle" x="574.5" y="-14.4" font-family="Times Roman,serif" font-size="14.00">D</text>
<polyline fill="none" stroke="gray" points="588.5,-0 588.5,-36 "/>
<text text-anchor="middle" x="613" y="-14.4" font-family="Times Roman,serif" font-size="14.00">Next</text>
</g>
<!-- NodeC&#45;&gt;NodeD -->
<g id="edge10" class="edge"><title>NodeC:f&#45;&gt;NodeD</title>
<path fill="none" stroke="black" d="M524,-18C532.516,-18 541.577,-18 550.347,-18"/>
<polygon fill="black" stroke="black" points="550.46,-21.5001 560.46,-18 550.46,-14.5001 550.46,-21.5001"/>
</g>
<!-- NodeN -->
<g id="node6" class="node"><title>NodeN</title>
<polygon fill="gray" stroke="gray" points="686,-0 716,-0 728,-12 728,-24 716,-36 686,-36 674,-24 674,-12 686,-0"/>
<path fill="gray" stroke="gray" d="M716,-0C722,-0 728,-6 728,-12"/>
<path fill="gray" stroke="gray" d="M728,-24C728,-30 722,-36 716,-36"/>
<path fill="gray" stroke="gray" d="M686,-36C680,-36 674,-30 674,-24"/>
<path fill="gray" stroke="gray" d="M674,-12C674,-6 680,-0 686,-0"/>
<polyline fill="none" stroke="gray" points="686,-0 716,-0 "/>
<path fill="none" stroke="gray" d="M716,-0C722,-0 728,-6 728,-12"/>
<polyline fill="none" stroke="gray" points="728,-12 728,-24 "/>
<path fill="none" stroke="gray" d="M728,-24C728,-30 722,-36 716,-36"/>
<polyline fill="none" stroke="gray" points="716,-36 686,-36 "/>
<path fill="none" stroke="gray" d="M686,-36C680,-36 674,-30 674,-24"/>
<polyline fill="none" stroke="gray" points="674,-24 674,-12 "/>
<path fill="none" stroke="gray" d="M674,-12C674,-6 680,-0 686,-0"/>
<text text-anchor="middle" x="701" y="-14.4" font-family="Times Roman,serif" font-size="14.00">Null</text>
</g>
<!-- NodeD&#45;&gt;NodeN -->
<g id="edge12" class="edge"><title>NodeD:f&#45;&gt;NodeN</title>
<path fill="none" stroke="black" d="M638,-18C646.229,-18 655.062,-18 663.434,-18"/>
<polygon fill="black" stroke="black" points="663.711,-21.5001 673.711,-18 663.711,-14.5001 663.711,-21.5001"/>
</g>
<!-- NodeE&#45;&gt;NodeB -->
<g id="edge6" class="edge"><title>NodeE:f&#45;&gt;NodeB</title>
<path fill="none" stroke="black" d="M300,-18C308.495,-18 317.539,-18 326.281,-18"/>
<polygon fill="black" stroke="black" points="326.354,-21.5001 336.354,-18 326.354,-14.5001 326.354,-21.5001"/>
</g>
</g>
</svg>
