<?xml version="1.0" encoding="UTF-8" standalone="no"?>
<!DOCTYPE svg PUBLIC "-//W3C//DTD SVG 1.1//EN"
 "http://www.w3.org/Graphics/SVG/1.1/DTD/svg11.dtd">
<!-- Generated by graphviz version 2.36.0 (20140111.2315)
 -->
<!-- Title: Skip_list Pages: 1 -->
<svg width="1307pt" height="206pt"
 viewBox="0.00 0.00 1307.00 206.00" xmlns="http://www.w3.org/2000/svg" xmlns:xlink="http://www.w3.org/1999/xlink">
<g id="graph0" class="graph" transform="scale(1 1) rotate(0) translate(4 202)">
<title>Skip_list</title>
<polygon fill="white" stroke="none" points="-4,4 -4,-202 1303,-202 1303,4 -4,4"/>
<!-- Node0 -->
<g id="node1" class="node"><title>Node0</title>
<path fill="gray" stroke="white" d="M12,0.2C12,0.2 42,0.2 42,0.2 48,0.2 54,-5.8 54,-11.8 54,-11.8 54,-186.2 54,-186.2 54,-192.2 48,-198.2 42,-198.2 42,-198.2 12,-198.2 12,-198.2 6,-198.2 0,-192.2 0,-186.2 0,-186.2 0,-11.8 0,-11.8 0,-5.8 6,0.2 12,0.2"/>
<text text-anchor="middle" x="27" y="-181.6" font-family="Times,serif" font-size="14.00">root</text>
<polyline fill="none" stroke="white" points="0,-173.4 54,-173.4 "/>
<text text-anchor="middle" x="27" y="-156.8" font-family="Times,serif" font-size="14.00">1</text>
<polyline fill="none" stroke="white" points="0,-148.6 54,-148.6 "/>
<text text-anchor="middle" x="27" y="-132" font-family="Times,serif" font-size="14.00">2</text>
<polyline fill="none" stroke="white" points="0,-123.8 54,-123.8 "/>
<text text-anchor="middle" x="27" y="-107.2" font-family="Times,serif" font-size="14.00">3</text>
<polyline fill="none" stroke="white" points="0,-99 54,-99 "/>
<text text-anchor="middle" x="27" y="-82.4" font-family="Times,serif" font-size="14.00">4</text>
<polyline fill="none" stroke="white" points="0,-74.2 54,-74.2 "/>
<text text-anchor="middle" x="27" y="-57.6" font-family="Times,serif" font-size="14.00">5</text>
<polyline fill="none" stroke="white" points="0,-49.4 54,-49.4 "/>
<text text-anchor="middle" x="27" y="-32.8" font-family="Times,serif" font-size="14.00">6</text>
<polyline fill="none" stroke="white" points="0,-24.6 54,-24.6 "/>
<text text-anchor="middle" x="27" y="-8" font-family="Times,serif" font-size="14.00"> </text>
</g>
<!-- &#45;175 -->
<g id="node2" class="node"><title>&#45;175</title>
<path fill="none" stroke="black" d="M95,-148.2C95,-148.2 125,-148.2 125,-148.2 131,-148.2 137,-154.2 137,-160.2 137,-160.2 137,-185.8 137,-185.8 137,-191.8 131,-197.8 125,-197.8 125,-197.8 95,-197.8 95,-197.8 89,-197.8 83,-191.8 83,-185.8 83,-185.8 83,-160.2 83,-160.2 83,-154.2 89,-148.2 95,-148.2"/>
<text text-anchor="middle" x="110" y="-181.2" font-family="Times,serif" font-size="14.00">&#45;175</text>
<polyline fill="none" stroke="black" points="83,-173 137,-173 "/>
<text text-anchor="middle" x="110" y="-156.4" font-family="Times,serif" font-size="14.00"> </text>
</g>
<!-- Node0&#45;&gt;&#45;175 -->
<g id="edge1" class="edge"><title>Node0:f1&#45;&gt;&#45;175:f1</title>
<path fill="none" stroke="black" d="M54,-161C62.6597,-161 66.9558,-161 72.7518,-161"/>
<polygon fill="black" stroke="black" points="73,-164.5 83,-161 73,-157.5 73,-164.5"/>
</g>
<!-- &#45;174 -->
<g id="node3" class="node"><title>&#45;174</title>
<path fill="none" stroke="black" d="M178,-74C178,-74 208,-74 208,-74 214,-74 220,-80 220,-86 220,-86 220,-186 220,-186 220,-192 214,-198 208,-198 208,-198 178,-198 178,-198 172,-198 166,-192 166,-186 166,-186 166,-86 166,-86 166,-80 172,-74 178,-74"/>
<text text-anchor="middle" x="193" y="-181.4" font-family="Times,serif" font-size="14.00">&#45;174</text>
<polyline fill="none" stroke="black" points="166,-173.2 220,-173.2 "/>
<text text-anchor="middle" x="193" y="-156.6" font-family="Times,serif" font-size="14.00"> </text>
<polyline fill="none" stroke="black" points="166,-148.4 220,-148.4 "/>
<text text-anchor="middle" x="193" y="-131.8" font-family="Times,serif" font-size="14.00"> </text>
<polyline fill="none" stroke="black" points="166,-123.6 220,-123.6 "/>
<text text-anchor="middle" x="193" y="-107" font-family="Times,serif" font-size="14.00"> </text>
<polyline fill="none" stroke="black" points="166,-98.8 220,-98.8 "/>
<text text-anchor="middle" x="193" y="-82.2" font-family="Times,serif" font-size="14.00"> </text>
</g>
<!-- Node0&#45;&gt;&#45;174 -->
<g id="edge2" class="edge"><title>Node0:f2&#45;&gt;&#45;174:f2</title>
<path fill="none" stroke="black" d="M54,-136C100.181,-136 114.229,-136 155.765,-136"/>
<polygon fill="black" stroke="black" points="156,-139.5 166,-136 156,-132.5 156,-139.5"/>
</g>
<!-- Node0&#45;&gt;&#45;174 -->
<g id="edge3" class="edge"><title>Node0:f3&#45;&gt;&#45;174:f3</title>
<path fill="none" stroke="black" d="M54,-111C100.181,-111 114.229,-111 155.765,-111"/>
<polygon fill="black" stroke="black" points="156,-114.5 166,-111 156,-107.5 156,-114.5"/>
</g>
<!-- Node0&#45;&gt;&#45;174 -->
<g id="edge4" class="edge"><title>Node0:f4&#45;&gt;&#45;174:f4</title>
<path fill="none" stroke="black" d="M54,-87C100.182,-87 114.227,-86.1393 155.765,-86.0149"/>
<polygon fill="black" stroke="black" points="156.005,-89.5147 166,-86 155.995,-82.5147 156.005,-89.5147"/>
</g>
<!-- &#45;83 -->
<g id="node4" class="node"><title>&#45;83</title>
<path fill="none" stroke="black" d="M510,-48.6C510,-48.6 540,-48.6 540,-48.6 546,-48.6 552,-54.6 552,-60.6 552,-60.6 552,-185.4 552,-185.4 552,-191.4 546,-197.4 540,-197.4 540,-197.4 510,-197.4 510,-197.4 504,-197.4 498,-191.4 498,-185.4 498,-185.4 498,-60.6 498,-60.6 498,-54.6 504,-48.6 510,-48.6"/>
<text text-anchor="middle" x="525" y="-180.8" font-family="Times,serif" font-size="14.00">&#45;83</text>
<polyline fill="none" stroke="black" points="498,-172.6 552,-172.6 "/>
<text text-anchor="middle" x="525" y="-156" font-family="Times,serif" font-size="14.00"> </text>
<polyline fill="none" stroke="black" points="498,-147.8 552,-147.8 "/>
<text text-anchor="middle" x="525" y="-131.2" font-family="Times,serif" font-size="14.00"> </text>
<polyline fill="none" stroke="black" points="498,-123 552,-123 "/>
<text text-anchor="middle" x="525" y="-106.4" font-family="Times,serif" font-size="14.00"> </text>
<polyline fill="none" stroke="black" points="498,-98.2 552,-98.2 "/>
<text text-anchor="middle" x="525" y="-81.6" font-family="Times,serif" font-size="14.00"> </text>
<polyline fill="none" stroke="black" points="498,-73.4 552,-73.4 "/>
<text text-anchor="middle" x="525" y="-56.8" font-family="Times,serif" font-size="14.00"> </text>
</g>
<!-- Node0&#45;&gt;&#45;83 -->
<g id="edge5" class="edge"><title>Node0:f5&#45;&gt;&#45;83:f5</title>
<path fill="none" stroke="black" d="M54,-62C115.335,-62 130.665,-61 192,-61 192,-61 192,-61 360,-61 417.74,-61 434.712,-61 487.674,-61"/>
<polygon fill="black" stroke="black" points="488,-64.5001 498,-61 488,-57.5001 488,-64.5001"/>
</g>
<!-- &#45;175&#45;&gt;&#45;174 -->
<g id="edge6" class="edge"><title>&#45;175:f1&#45;&gt;&#45;174:f1</title>
<path fill="none" stroke="black" d="M137,-161C145.66,-161 149.956,-161 155.752,-161"/>
<polygon fill="black" stroke="black" points="156,-164.5 166,-161 156,-157.5 156,-164.5"/>
</g>
<!-- &#45;174&#45;&gt;&#45;83 -->
<g id="edge10" class="edge"><title>&#45;174:f4&#45;&gt;&#45;83:f4</title>
<path fill="none" stroke="black" d="M220,-86C340.056,-86 372.621,-86 487.721,-86"/>
<polygon fill="black" stroke="black" points="488,-89.5001 498,-86 488,-82.5001 488,-89.5001"/>
</g>
<!-- &#45;169 -->
<g id="node5" class="node"><title>&#45;169</title>
<path fill="none" stroke="black" d="M261,-147.2C261,-147.2 291,-147.2 291,-147.2 297,-147.2 303,-153.2 303,-159.2 303,-159.2 303,-184.8 303,-184.8 303,-190.8 297,-196.8 291,-196.8 291,-196.8 261,-196.8 261,-196.8 255,-196.8 249,-190.8 249,-184.8 249,-184.8 249,-159.2 249,-159.2 249,-153.2 255,-147.2 261,-147.2"/>
<text text-anchor="middle" x="276" y="-180.2" font-family="Times,serif" font-size="14.00">&#45;169</text>
<polyline fill="none" stroke="black" points="249,-172 303,-172 "/>
<text text-anchor="middle" x="276" y="-155.4" font-family="Times,serif" font-size="14.00"> </text>
</g>
<!-- &#45;174&#45;&gt;&#45;169 -->
<g id="edge7" class="edge"><title>&#45;174:f1&#45;&gt;&#45;169:f1</title>
<path fill="none" stroke="black" d="M220,-161C228.665,-161 232.956,-160.549 238.75,-160.252"/>
<polygon fill="black" stroke="black" points="239.089,-163.745 249,-160 238.917,-156.747 239.089,-163.745"/>
</g>
<!-- &#45;150 -->
<g id="node6" class="node"><title>&#45;150</title>
<path fill="none" stroke="black" d="M427,-98.4C427,-98.4 457,-98.4 457,-98.4 463,-98.4 469,-104.4 469,-110.4 469,-110.4 469,-185.6 469,-185.6 469,-191.6 463,-197.6 457,-197.6 457,-197.6 427,-197.6 427,-197.6 421,-197.6 415,-191.6 415,-185.6 415,-185.6 415,-110.4 415,-110.4 415,-104.4 421,-98.4 427,-98.4"/>
<text text-anchor="middle" x="442" y="-181" font-family="Times,serif" font-size="14.00">&#45;150</text>
<polyline fill="none" stroke="black" points="415,-172.8 469,-172.8 "/>
<text text-anchor="middle" x="442" y="-156.2" font-family="Times,serif" font-size="14.00"> </text>
<polyline fill="none" stroke="black" points="415,-148 469,-148 "/>
<text text-anchor="middle" x="442" y="-131.4" font-family="Times,serif" font-size="14.00"> </text>
<polyline fill="none" stroke="black" points="415,-123.2 469,-123.2 "/>
<text text-anchor="middle" x="442" y="-106.6" font-family="Times,serif" font-size="14.00"> </text>
</g>
<!-- &#45;174&#45;&gt;&#45;150 -->
<g id="edge8" class="edge"><title>&#45;174:f2&#45;&gt;&#45;150:f2</title>
<path fill="none" stroke="black" d="M220,-136C303.112,-136 326.447,-136 404.655,-136"/>
<polygon fill="black" stroke="black" points="405,-139.5 415,-136 405,-132.5 405,-139.5"/>
</g>
<!-- &#45;174&#45;&gt;&#45;150 -->
<g id="edge9" class="edge"><title>&#45;174:f3&#45;&gt;&#45;150:f3</title>
<path fill="none" stroke="black" d="M220,-111C303.112,-111 326.447,-111 404.655,-111"/>
<polygon fill="black" stroke="black" points="405,-114.5 415,-111 405,-107.5 405,-114.5"/>
</g>
<!-- &#45;41 -->
<g id="node8" class="node"><title>&#45;41</title>
<path fill="none" stroke="black" d="M593,-147.2C593,-147.2 623,-147.2 623,-147.2 629,-147.2 635,-153.2 635,-159.2 635,-159.2 635,-184.8 635,-184.8 635,-190.8 629,-196.8 623,-196.8 623,-196.8 593,-196.8 593,-196.8 587,-196.8 581,-190.8 581,-184.8 581,-184.8 581,-159.2 581,-159.2 581,-153.2 587,-147.2 593,-147.2"/>
<text text-anchor="middle" x="608" y="-180.2" font-family="Times,serif" font-size="14.00">&#45;41</text>
<polyline fill="none" stroke="black" points="581,-172 635,-172 "/>
<text text-anchor="middle" x="608" y="-155.4" font-family="Times,serif" font-size="14.00"> </text>
</g>
<!-- &#45;83&#45;&gt;&#45;41 -->
<g id="edge16" class="edge"><title>&#45;83:f1&#45;&gt;&#45;41:f1</title>
<path fill="none" stroke="black" d="M552,-160C560.66,-160 564.956,-160 570.752,-160"/>
<polygon fill="black" stroke="black" points="571,-163.5 581,-160 571,-156.5 571,-163.5"/>
</g>
<!-- 74 -->
<g id="node9" class="node"><title>74</title>
<path fill="none" stroke="black" d="M759,-122.8C759,-122.8 789,-122.8 789,-122.8 795,-122.8 801,-128.8 801,-134.8 801,-134.8 801,-185.2 801,-185.2 801,-191.2 795,-197.2 789,-197.2 789,-197.2 759,-197.2 759,-197.2 753,-197.2 747,-191.2 747,-185.2 747,-185.2 747,-134.8 747,-134.8 747,-128.8 753,-122.8 759,-122.8"/>
<text text-anchor="middle" x="774" y="-180.6" font-family="Times,serif" font-size="14.00">74</text>
<polyline fill="none" stroke="black" points="747,-172.4 801,-172.4 "/>
<text text-anchor="middle" x="774" y="-155.8" font-family="Times,serif" font-size="14.00"> </text>
<polyline fill="none" stroke="black" points="747,-147.6 801,-147.6 "/>
<text text-anchor="middle" x="774" y="-131" font-family="Times,serif" font-size="14.00"> </text>
</g>
<!-- &#45;83&#45;&gt;74 -->
<g id="edge17" class="edge"><title>&#45;83:f2&#45;&gt;74:f2</title>
<path fill="none" stroke="black" d="M552,-135C635.112,-135 658.447,-135 736.655,-135"/>
<polygon fill="black" stroke="black" points="737,-138.5 747,-135 737,-131.5 737,-138.5"/>
</g>
<!-- &#45;153 -->
<g id="node7" class="node"><title>&#45;153</title>
<path fill="none" stroke="black" d="M344,-147.2C344,-147.2 374,-147.2 374,-147.2 380,-147.2 386,-153.2 386,-159.2 386,-159.2 386,-184.8 386,-184.8 386,-190.8 380,-196.8 374,-196.8 374,-196.8 344,-196.8 344,-196.8 338,-196.8 332,-190.8 332,-184.8 332,-184.8 332,-159.2 332,-159.2 332,-153.2 338,-147.2 344,-147.2"/>
<text text-anchor="middle" x="359" y="-180.2" font-family="Times,serif" font-size="14.00">&#45;153</text>
<polyline fill="none" stroke="black" points="332,-172 386,-172 "/>
<text text-anchor="middle" x="359" y="-155.4" font-family="Times,serif" font-size="14.00"> </text>
</g>
<!-- &#45;169&#45;&gt;&#45;153 -->
<g id="edge11" class="edge"><title>&#45;169:f1&#45;&gt;&#45;153:f1</title>
<path fill="none" stroke="black" d="M303,-160C311.66,-160 315.956,-160 321.752,-160"/>
<polygon fill="black" stroke="black" points="322,-163.5 332,-160 322,-156.5 322,-163.5"/>
</g>
<!-- &#45;150&#45;&gt;&#45;83 -->
<g id="edge13" class="edge"><title>&#45;150:f1&#45;&gt;&#45;83:f1</title>
<path fill="none" stroke="black" d="M469,-160C477.66,-160 481.956,-160 487.752,-160"/>
<polygon fill="black" stroke="black" points="488,-163.5 498,-160 488,-156.5 488,-163.5"/>
</g>
<!-- &#45;150&#45;&gt;&#45;83 -->
<g id="edge14" class="edge"><title>&#45;150:f2&#45;&gt;&#45;83:f2</title>
<path fill="none" stroke="black" d="M469,-136C477.665,-136 481.956,-135.549 487.75,-135.252"/>
<polygon fill="black" stroke="black" points="488.089,-138.745 498,-135 487.917,-131.747 488.089,-138.745"/>
</g>
<!-- &#45;150&#45;&gt;&#45;83 -->
<g id="edge15" class="edge"><title>&#45;150:f3&#45;&gt;&#45;83:f3</title>
<path fill="none" stroke="black" d="M469,-111C477.66,-111 481.956,-111 487.752,-111"/>
<polygon fill="black" stroke="black" points="488,-114.5 498,-111 488,-107.5 488,-114.5"/>
</g>
<!-- &#45;153&#45;&gt;&#45;150 -->
<g id="edge12" class="edge"><title>&#45;153:f1&#45;&gt;&#45;150:f1</title>
<path fill="none" stroke="black" d="M386,-160C394.66,-160 398.956,-160 404.752,-160"/>
<polygon fill="black" stroke="black" points="405,-163.5 415,-160 405,-156.5 405,-163.5"/>
</g>
<!-- &#45;20 -->
<g id="node10" class="node"><title>&#45;20</title>
<path fill="none" stroke="black" d="M676,-147.2C676,-147.2 706,-147.2 706,-147.2 712,-147.2 718,-153.2 718,-159.2 718,-159.2 718,-184.8 718,-184.8 718,-190.8 712,-196.8 706,-196.8 706,-196.8 676,-196.8 676,-196.8 670,-196.8 664,-190.8 664,-184.8 664,-184.8 664,-159.2 664,-159.2 664,-153.2 670,-147.2 676,-147.2"/>
<text text-anchor="middle" x="691" y="-180.2" font-family="Times,serif" font-size="14.00">&#45;20</text>
<polyline fill="none" stroke="black" points="664,-172 718,-172 "/>
<text text-anchor="middle" x="691" y="-155.4" font-family="Times,serif" font-size="14.00"> </text>
</g>
<!-- &#45;41&#45;&gt;&#45;20 -->
<g id="edge18" class="edge"><title>&#45;41:f1&#45;&gt;&#45;20:f1</title>
<path fill="none" stroke="black" d="M635,-160C643.66,-160 647.956,-160 653.752,-160"/>
<polygon fill="black" stroke="black" points="654,-163.5 664,-160 654,-156.5 654,-163.5"/>
</g>
<!-- 80 -->
<g id="node11" class="node"><title>80</title>
<path fill="none" stroke="black" d="M842,-147.2C842,-147.2 872,-147.2 872,-147.2 878,-147.2 884,-153.2 884,-159.2 884,-159.2 884,-184.8 884,-184.8 884,-190.8 878,-196.8 872,-196.8 872,-196.8 842,-196.8 842,-196.8 836,-196.8 830,-190.8 830,-184.8 830,-184.8 830,-159.2 830,-159.2 830,-153.2 836,-147.2 842,-147.2"/>
<text text-anchor="middle" x="857" y="-180.2" font-family="Times,serif" font-size="14.00">80</text>
<polyline fill="none" stroke="black" points="830,-172 884,-172 "/>
<text text-anchor="middle" x="857" y="-155.4" font-family="Times,serif" font-size="14.00"> </text>
</g>
<!-- 74&#45;&gt;80 -->
<g id="edge20" class="edge"><title>74:f1&#45;&gt;80:f1</title>
<path fill="none" stroke="black" d="M801,-160C809.66,-160 813.956,-160 819.752,-160"/>
<polygon fill="black" stroke="black" points="820,-163.5 830,-160 820,-156.5 820,-163.5"/>
</g>
<!-- 166 -->
<g id="node12" class="node"><title>166</title>
<path fill="none" stroke="black" d="M1008,-122.8C1008,-122.8 1038,-122.8 1038,-122.8 1044,-122.8 1050,-128.8 1050,-134.8 1050,-134.8 1050,-185.2 1050,-185.2 1050,-191.2 1044,-197.2 1038,-197.2 1038,-197.2 1008,-197.2 1008,-197.2 1002,-197.2 996,-191.2 996,-185.2 996,-185.2 996,-134.8 996,-134.8 996,-128.8 1002,-122.8 1008,-122.8"/>
<text text-anchor="middle" x="1023" y="-180.6" font-family="Times,serif" font-size="14.00">166</text>
<polyline fill="none" stroke="black" points="996,-172.4 1050,-172.4 "/>
<text text-anchor="middle" x="1023" y="-155.8" font-family="Times,serif" font-size="14.00"> </text>
<polyline fill="none" stroke="black" points="996,-147.6 1050,-147.6 "/>
<text text-anchor="middle" x="1023" y="-131" font-family="Times,serif" font-size="14.00"> </text>
</g>
<!-- 74&#45;&gt;166 -->
<g id="edge21" class="edge"><title>74:f2&#45;&gt;166:f2</title>
<path fill="none" stroke="black" d="M801,-135C884.112,-135 907.447,-135 985.655,-135"/>
<polygon fill="black" stroke="black" points="986,-138.5 996,-135 986,-131.5 986,-138.5"/>
</g>
<!-- &#45;20&#45;&gt;74 -->
<g id="edge19" class="edge"><title>&#45;20:f1&#45;&gt;74:f1</title>
<path fill="none" stroke="black" d="M718,-160C726.66,-160 730.956,-160 736.752,-160"/>
<polygon fill="black" stroke="black" points="737,-163.5 747,-160 737,-156.5 737,-163.5"/>
</g>
<!-- 99 -->
<g id="node13" class="node"><title>99</title>
<path fill="none" stroke="black" d="M925,-147.2C925,-147.2 955,-147.2 955,-147.2 961,-147.2 967,-153.2 967,-159.2 967,-159.2 967,-184.8 967,-184.8 967,-190.8 961,-196.8 955,-196.8 955,-196.8 925,-196.8 925,-196.8 919,-196.8 913,-190.8 913,-184.8 913,-184.8 913,-159.2 913,-159.2 913,-153.2 919,-147.2 925,-147.2"/>
<text text-anchor="middle" x="940" y="-180.2" font-family="Times,serif" font-size="14.00">99</text>
<polyline fill="none" stroke="black" points="913,-172 967,-172 "/>
<text text-anchor="middle" x="940" y="-155.4" font-family="Times,serif" font-size="14.00"> </text>
</g>
<!-- 80&#45;&gt;99 -->
<g id="edge22" class="edge"><title>80:f1&#45;&gt;99:f1</title>
<path fill="none" stroke="black" d="M884,-160C892.66,-160 896.956,-160 902.752,-160"/>
<polygon fill="black" stroke="black" points="903,-163.5 913,-160 903,-156.5 903,-163.5"/>
</g>
<!-- 169 -->
<g id="node14" class="node"><title>169</title>
<path fill="none" stroke="black" d="M1091,-147.2C1091,-147.2 1121,-147.2 1121,-147.2 1127,-147.2 1133,-153.2 1133,-159.2 1133,-159.2 1133,-184.8 1133,-184.8 1133,-190.8 1127,-196.8 1121,-196.8 1121,-196.8 1091,-196.8 1091,-196.8 1085,-196.8 1079,-190.8 1079,-184.8 1079,-184.8 1079,-159.2 1079,-159.2 1079,-153.2 1085,-147.2 1091,-147.2"/>
<text text-anchor="middle" x="1106" y="-180.2" font-family="Times,serif" font-size="14.00">169</text>
<polyline fill="none" stroke="black" points="1079,-172 1133,-172 "/>
<text text-anchor="middle" x="1106" y="-155.4" font-family="Times,serif" font-size="14.00"> </text>
</g>
<!-- 166&#45;&gt;169 -->
<g id="edge24" class="edge"><title>166:f1&#45;&gt;169:f1</title>
<path fill="none" stroke="black" d="M1050,-160C1058.66,-160 1062.96,-160 1068.75,-160"/>
<polygon fill="black" stroke="black" points="1069,-163.5 1079,-160 1069,-156.5 1069,-163.5"/>
</g>
<!-- 99&#45;&gt;166 -->
<g id="edge23" class="edge"><title>99:f1&#45;&gt;166:f1</title>
<path fill="none" stroke="black" d="M967,-160C975.66,-160 979.956,-160 985.752,-160"/>
<polygon fill="black" stroke="black" points="986,-163.5 996,-160 986,-156.5 986,-163.5"/>
</g>
<!-- 181 -->
<g id="node15" class="node"><title>181</title>
<path fill="none" stroke="black" d="M1174,-147.2C1174,-147.2 1204,-147.2 1204,-147.2 1210,-147.2 1216,-153.2 1216,-159.2 1216,-159.2 1216,-184.8 1216,-184.8 1216,-190.8 1210,-196.8 1204,-196.8 1204,-196.8 1174,-196.8 1174,-196.8 1168,-196.8 1162,-190.8 1162,-184.8 1162,-184.8 1162,-159.2 1162,-159.2 1162,-153.2 1168,-147.2 1174,-147.2"/>
<text text-anchor="middle" x="1189" y="-180.2" font-family="Times,serif" font-size="14.00">181</text>
<polyline fill="none" stroke="black" points="1162,-172 1216,-172 "/>
<text text-anchor="middle" x="1189" y="-155.4" font-family="Times,serif" font-size="14.00"> </text>
</g>
<!-- 169&#45;&gt;181 -->
<g id="edge25" class="edge"><title>169:f1&#45;&gt;181:f1</title>
<path fill="none" stroke="black" d="M1133,-160C1141.66,-160 1145.96,-160 1151.75,-160"/>
<polygon fill="black" stroke="black" points="1152,-163.5 1162,-160 1152,-156.5 1152,-163.5"/>
</g>
<!-- 186 -->
<g id="node16" class="node"><title>186</title>
<path fill="none" stroke="black" d="M1257,-147.2C1257,-147.2 1287,-147.2 1287,-147.2 1293,-147.2 1299,-153.2 1299,-159.2 1299,-159.2 1299,-184.8 1299,-184.8 1299,-190.8 1293,-196.8 1287,-196.8 1287,-196.8 1257,-196.8 1257,-196.8 1251,-196.8 1245,-190.8 1245,-184.8 1245,-184.8 1245,-159.2 1245,-159.2 1245,-153.2 1251,-147.2 1257,-147.2"/>
<text text-anchor="middle" x="1272" y="-180.2" font-family="Times,serif" font-size="14.00">186</text>
<polyline fill="none" stroke="black" points="1245,-172 1299,-172 "/>
<text text-anchor="middle" x="1272" y="-155.4" font-family="Times,serif" font-size="14.00"> </text>
</g>
<!-- 181&#45;&gt;186 -->
<g id="edge26" class="edge"><title>181:f1&#45;&gt;186:f1</title>
<path fill="none" stroke="black" d="M1216,-160C1224.66,-160 1228.96,-160 1234.75,-160"/>
<polygon fill="black" stroke="black" points="1235,-163.5 1245,-160 1235,-156.5 1235,-163.5"/>
</g>
</g>
</svg>
